<?xml version="1.0" encoding="UTF-8" standalone="no"?>
<svg width="208px" height="41px" viewBox="0 0 208 41" version="1.1" xmlns="http://www.w3.org/2000/svg" xmlns:xlink="http://www.w3.org/1999/xlink">
    <!-- Generator: Sketch 3.8.3 (29802) - http://www.bohemiancoding.com/sketch -->
    <title>Ci-DOC</title>
    <desc>Created with Sketch.</desc>
    <defs></defs>
    <g id="Page-1" stroke="none" stroke-width="1" fill="none" fill-rule="evenodd">
        <g id="文档-•-首页" transform="translate(-167.000000, -30.000000)">
            <g id="Nav" transform="translate(167.000000, 27.000000)">
                <g id="Ci-DOC" transform="translate(0.000000, 3.000000)">
                    <g id="图层_1">
                        <path d="M55.0548957,28.5000826 C51.8585662,28.5000826 48.976968,26.5459717 47.7537857,23.5489487 C46.5306033,20.5519257 47.2067218,17.102203 49.466868,14.8083808 C51.7270142,12.5145587 55.1260911,11.8283662 58.0791145,13.0697738 C61.0321378,14.3111814 62.9575602,17.2357151 62.9575602,20.4796694 C62.9538783,24.9076726 59.4178908,28.4963459 55.0548957,28.5000826 L55.0548957,28.5000826 Z M55.0548957,17.5317355 C53.4488552,17.5317355 52.1469021,18.8530875 52.1469021,20.4830579 C52.1469021,22.1130282 53.4488552,23.4343802 55.0548957,23.4343802 C56.6609362,23.4343802 57.9628892,22.1130282 57.9628892,20.4830579 C57.9610494,18.8538616 56.6601735,17.5336028 55.0548957,17.5317355 L55.0548957,17.5317355 Z" id="Shape" fill="#1B1B1B"></path>
                        <path d="M84.2950883,18.6058678 C75.2272231,10.7989256 65.8488604,2.7107438 55.0548957,2.7107438 C44.260931,2.7107438 34.8825682,10.7989256 25.814703,18.6058678 C17.094061,26.1146281 8.85752809,33.2066116 0,33.2066116 L0,38.2892562 C10.6837881,38.2892562 20.0321027,30.2552893 29.046549,22.4822314 C37.8139326,14.9090909 46.0972071,7.79338843 55.0548957,7.79338843 C64.0125843,7.79338843 72.2958587,14.9090909 81.0632424,22.4754545 C90.0776886,30.245124 99.4260032,38.2824793 110.109791,38.2824793 L110.109791,33.2066116 C101.252263,33.2066116 93.0157303,26.1146281 84.2950883,18.6058678 L84.2950883,18.6058678 Z" id="Shape" fill="#1B1B1B"></path>
                        <path d="M85.9110112,16.6744628 C86.7612627,17.4063636 87.6059497,18.1314876 88.4450722,18.8498347 C95.6666453,12.7980992 102.671204,7.79338843 110.109791,7.79338843 L110.109791,2.7107438 C100.798202,2.7107438 92.5182665,8.80991736 84.5755377,15.5122314 L85.9110112,16.6744628 Z" id="Shape" fill="#1B1B1B"></path>
                        <path d="M79.4606742,24.3966942 C78.5703585,23.637686 77.6945104,22.886584 76.83313,22.1433884 C69.5815088,28.2086777 62.5569181,33.2066116 55.0548957,33.2066116 C47.5528732,33.2066116 40.5282825,28.2086777 33.2933547,22.1501653 C32.4208454,22.8933609 31.5438844,23.6422039 30.6624719,24.3966942 L29.4204815,25.467438 C37.3932584,32.1900826 45.6832103,38.2892562 55.0548957,38.2892562 C64.4265811,38.2892562 72.7298876,32.1900826 80.6926485,25.4843802 L79.4606742,24.3966942 Z" id="Shape" fill="#1B1B1B"></path>
                        <path d="M24.1987801,16.6744628 L25.5342536,15.5257851 C17.5915249,8.80991736 9.31158909,2.7107438 0,2.7107438 L0,7.79338843 C7.43858748,7.79338843 14.4431461,12.7980992 21.6613804,18.8532231 C22.5027287,18.134876 23.3485286,17.4086226 24.1987801,16.6744628 L24.1987801,16.6744628 Z" id="Shape" fill="#1B1B1B"></path>
                        <path d="M182.395634,10.4092562 C182.955083,9.26374383 183.64537,8.18900262 184.452263,7.20719008 C182.572584,5.88909091 180.202119,5.21818182 177.314157,5.21818182 C174.342729,5.21818182 171.894361,5.91732782 169.969053,7.31561983 C172.773547,10.4781543 174.175795,14.7701653 174.175795,20.1916529 C174.175795,25.9655372 172.729032,30.4597245 169.835506,33.6742149 C171.77862,35.1357576 174.259262,35.8665289 177.277432,35.8665289 C180.041862,35.8665289 182.332199,35.2498347 184.175152,34.0503306 C181.584334,30.7612948 180.288925,26.24 180.288925,20.4864463 C180.288925,16.6530028 180.991161,13.2939394 182.395634,10.4092562 L182.395634,10.4092562 Z" id="Shape"></path>
                        <path d="M187.437047,10.5515702 C185.707608,13.1358127 184.841776,16.4643802 184.839551,20.5372727 C184.839551,24.7321488 185.675334,28.1036364 187.346902,30.6517355 C188.825939,28.1375207 189.573804,24.7558678 189.573804,20.4864463 C189.573804,16.3423967 188.855987,13.0386777 187.437047,10.5515702 L187.437047,10.5515702 Z" id="Shape"></path>
                        <path d="M167.064398,10.5820661 C165.612071,13.0759504 164.874222,16.3695041 164.874222,20.4864463 C164.874222,24.552562 165.572006,27.7919008 166.940867,30.2722314 C168.743756,27.8156198 169.658555,24.5119008 169.658555,20.3339669 C169.658555,16.2204132 168.793836,12.9697796 167.064398,10.5820661 L167.064398,10.5820661 Z" id="Shape"></path>
                        <path d="M163.782472,7.56636364 C161.582279,6.28553719 158.774446,5.59090909 155.368989,5.59090909 L149.416116,5.59090909 L149.416116,35.4090909 L154.364045,35.4090909 C158.187951,35.4090909 161.297378,34.6884848 163.692327,33.2472727 C161.472103,30.0214876 160.353644,25.7283471 160.353644,20.4152893 C160.353644,15.1022314 161.502151,10.7887603 163.782472,7.56636364 L163.782472,7.56636364 Z" id="Shape"></path>
                        <path d="M167.064398,10.5820661 C166.760761,10.1519008 166.425965,9.74529322 166.062793,9.36561983 C165.384117,8.6789065 164.61706,8.08848817 163.782472,7.61041322 C161.503264,10.8316804 160.36366,15.1067493 160.36366,20.4356198 C160.36366,25.7644904 161.476554,30.0339118 163.702343,33.2438843 C164.474949,32.7837563 165.190127,32.2308478 165.832424,31.5971074 C166.238697,31.1869521 166.612663,30.7451025 166.950883,30.2756198 C165.582022,27.7986777 164.884238,24.5457851 164.884238,20.4898347 C164.874222,16.3695041 165.598716,13.0759504 167.064398,10.5820661 L167.064398,10.5820661 Z" id="Shape" fill="#1B1B1B"></path>
                        <path d="M164.774061,6.34991736 C164.41802,6.75142657 164.083662,7.17220785 163.772456,7.61041322 C164.607044,8.08848817 165.374101,8.6789065 166.052777,9.36561983 C166.415949,9.74529322 166.750744,10.1519008 167.054382,10.5820661 C167.345011,10.0712372 167.674306,9.58409644 168.039294,9.12504132 C168.597708,8.4385455 169.243233,7.83011704 169.959037,7.31561983 C169.785425,7.12247934 169.625169,6.92933884 169.428186,6.74297521 C168.601525,5.9047768 167.679063,5.16991741 166.680449,4.55404959 C165.991059,5.09086199 165.352801,5.69211796 164.774061,6.34991736 L164.774061,6.34991736 Z" id="Shape" fill="#1B1B1B"></path>
                        <path d="M168.116083,28.2933884 L168.666966,29.2895868 C168.928489,29.7780162 169.232399,30.2418082 169.575088,30.6754545 C169.992093,31.1922026 170.469722,31.6553281 170.997368,32.0545455 L171.047448,32.0918182 C173.128561,29.0377135 174.17023,25.0676033 174.172456,20.1814876 C174.172456,15.6184022 173.170851,11.8572452 171.16764,8.89801653 L171.094189,8.94884298 C170.520674,9.36163234 170.003186,9.84923561 169.555056,10.3990909 C169.256279,10.7780927 168.987247,11.1802898 168.750433,11.6019835 L168.189535,12.5642975 C169.153301,14.6741598 169.63741,17.2640496 169.641862,20.3339669 C169.652991,23.4784298 169.144398,26.1315702 168.116083,28.2933884 L168.116083,28.2933884 Z" id="Shape" fill="#1B1B1B"></path>
                        <path d="M163.285008,35.9546281 C162.851445,35.4582974 162.446777,34.9367229 162.073066,34.392562 L161.962889,34.1180992 C159.859518,35.0126446 157.328796,35.4090909 154.367384,35.4090909 L149.416116,35.4090909 L149.416116,5.59090909 L155.36565,5.59090909 C157.599356,5.56999099 159.819515,5.94495753 161.926164,6.69892562 L162.18992,6.38380165 C162.540698,5.89682787 162.917417,5.4296585 163.318395,4.98438017 C163.785492,4.4207346 164.287299,3.88768383 164.820803,3.38842975 C162.089401,2.15360802 159.130319,1.52294187 156.140225,1.53834711 L144.741958,1.53834711 L144.741958,38.8110744 L155.065169,38.8110744 C158.787801,38.8110744 161.976244,38.3671901 164.647191,37.191405 C164.167863,36.8087396 163.712892,36.3956542 163.285008,35.9546281 L163.285008,35.9546281 Z" id="Shape" fill="#1B1B1B"></path>
                        <path d="M169.818812,33.6640496 C169.16099,33.1682797 168.565594,32.5924619 168.045971,31.9495041 C167.628573,31.4193315 167.258732,30.8523346 166.940867,30.2552893 C166.602647,30.7247719 166.228681,31.1666215 165.822408,31.5767769 C165.180111,32.2105173 164.464933,32.7634257 163.692327,33.2235537 C164.021634,33.7040144 164.37837,34.164499 164.760706,34.6026446 C165.313759,35.2349203 165.921613,35.8155416 166.57695,36.3375207 C167.542841,35.7461868 168.438972,35.0447477 169.247897,34.2468595 C169.443767,34.0661433 169.634072,33.8718733 169.818812,33.6640496 L169.818812,33.6640496 Z" id="Shape" fill="#1B1B1B"></path>
                        <path d="M190.304976,33.7114876 C190.0913,33.9927273 189.870947,34.2705785 189.637239,34.534876 C188.884897,35.4027617 188.033058,36.1762902 187.099839,36.8390083 C189.770787,38.7128099 193.089438,39.651405 197.1426,39.651405 C200.868571,39.651405 204.173868,39.1668595 206.510947,38.201157 L206.510947,34.4061157 C203.172263,35.3379339 200.351075,35.8055372 197.793644,35.8055372 C194.778812,35.8089256 192.308186,35.1007438 190.304976,33.7114876 L190.304976,33.7114876 Z" id="Shape" fill="#1B1B1B"></path>
                        <path d="M189.637239,6.43801653 C189.917689,6.75652893 190.178106,7.09198347 190.431846,7.43760331 C192.465104,5.99752066 194.939069,5.26900826 197.867095,5.26900826 C200.75239,5.29547993 203.595662,5.97377222 206.190433,7.2546281 L207.996661,3.52735537 C205.120942,2.10195592 201.761113,1.3892562 197.917175,1.3892562 C194.306945,1.3892562 191.168582,2.16972452 188.502087,3.73066116 C188.141509,3.9407438 187.797624,4.16438017 187.460417,4.40834711 C188.253072,5.00687851 188.982565,5.68705815 189.637239,6.43801653 L189.637239,6.43801653 Z" id="Shape" fill="#1B1B1B"></path>
                        <path d="M187.437047,10.5515702 C187.154286,10.0423729 186.832796,9.55635146 186.475506,9.09793388 C185.892658,8.37246309 185.210163,7.73571405 184.448925,7.20719008 C183.642032,8.18900262 182.951745,9.26374383 182.392295,10.4092562 C180.990048,13.2939394 180.288925,16.6530028 180.288925,20.4864463 C180.288925,26.24 181.583221,30.7579063 184.171814,34.0401653 C185.044427,33.4775647 185.822249,32.7762477 186.475506,31.9630579 C186.800814,31.5478903 187.096484,31.1096675 187.360257,30.6517355 C185.690915,28.1013774 184.855131,24.7298898 184.852905,20.5372727 C184.844002,16.4621212 185.705383,13.1335537 187.437047,10.5515702 L187.437047,10.5515702 Z" id="Shape" fill="#1B1B1B"></path>
                        <path d="M183.203596,36.0020661 C183.001049,35.7761708 182.805179,35.5401102 182.615987,35.2938843 L182.35557,34.9550413 C180.728816,35.5750781 179.001533,35.8785516 177.264077,35.8495868 C174.245907,35.8495868 171.765265,35.1188154 169.822151,33.6572727 C169.63741,33.8628375 169.445993,34.0638843 169.247897,34.2604132 C168.438972,35.0583014 167.542841,35.7597405 166.57695,36.3510744 C169.332477,38.5445179 172.89374,39.6423691 177.260738,39.6446281 C180.305618,39.6446281 182.96321,39.068595 185.240193,37.9334711 C184.507012,37.3513168 183.825536,36.7050404 183.203596,36.0020661 L183.203596,36.0020661 Z" id="Shape" fill="#1B1B1B"></path>
                        <path d="M189.637239,34.534876 C189.867608,34.2671901 190.087961,33.9927273 190.304976,33.7114876 C189.529631,33.1796049 188.826884,32.5461404 188.21496,31.8275207 C187.903118,31.455239 187.614324,31.0636886 187.350241,30.655124 C187.086468,31.1130559 186.790798,31.5512787 186.46549,31.9664463 C185.812233,32.7796361 185.034411,33.4809531 184.161798,34.0435537 C184.328732,34.2558953 184.501231,34.4625895 184.679294,34.6636364 C185.399318,35.4825649 186.211747,36.2127044 187.099839,36.8390083 C188.033058,36.1762902 188.884897,35.4027617 189.637239,34.534876 L189.637239,34.534876 Z" id="Shape" fill="#1B1B1B"></path>
                        <path d="M182.933162,5.91958678 C183.745534,4.93449244 184.663803,4.04459293 185.670883,3.26644628 C183.313772,1.99917355 180.532648,1.3553719 177.314157,1.3553719 C172.97832,1.3553719 169.435976,2.42498623 166.687127,4.56421488 C167.685741,5.1800827 168.608202,5.91494209 169.434864,6.7531405 C169.618491,6.93950413 169.795441,7.1292562 169.965714,7.32578512 C171.895474,5.93201102 174.343842,5.23286501 177.310819,5.22834711 C179.148653,5.19448585 180.974072,5.5403386 182.676083,6.24487603 L182.933162,5.91958678 Z" id="Shape" fill="#1B1B1B"></path>
                        <path d="M184.448925,7.20719008 C185.210163,7.73571405 185.892658,8.37246309 186.475506,9.09793388 C186.832796,9.55635146 187.154286,10.0423729 187.437047,10.5515702 C187.712642,10.1339625 188.012543,9.73341604 188.335152,9.35206612 C188.955847,8.62836534 189.66233,7.98533259 190.438523,7.43760331 C190.184783,7.09876033 189.924366,6.75991736 189.643917,6.43801653 C188.989414,5.68587591 188.259915,5.00455517 187.467095,4.40495868 C186.338836,5.19370761 185.323203,6.13667625 184.448925,7.20719008 L184.448925,7.20719008 Z" id="Shape" fill="#1B1B1B"></path>
                        <path d="M188.34183,28.5407438 L189.009567,29.5572727 C189.227589,29.8961814 189.466211,30.2209707 189.724045,30.5297521 C190.212647,31.1086903 190.773869,31.6201766 191.393387,32.051157 C193.179583,28.9642975 194.087705,25.1218182 194.087705,20.5 C194.087705,15.966281 193.219647,12.1915702 191.513579,9.1453719 C190.899259,9.58949121 190.338912,10.1058679 189.844238,10.683719 C189.573105,11.0070935 189.321146,11.3465348 189.089695,11.7002479 L188.421958,12.7167769 C189.196533,14.8684298 189.590498,17.4605785 189.590498,20.5101653 C189.579369,23.6681818 189.163146,26.3450413 188.34183,28.5407438 L188.34183,28.5407438 Z" id="Shape" fill="#1B1B1B"></path>
                        <g id="Group" opacity="0.3" transform="translate(126.869984, 0.000000)" fill="#231815">
                            <rect id="Rectangle-path" x="0.0100160514" y="0" width="1.12847512" height="41"></rect>
                        </g>
                    </g>
                </g>
            </g>
        </g>
    </g>
</svg>