<?xml version="1.0" encoding="UTF-8" standalone="no"?>
<svg width="60px" height="67px" viewBox="0 0 60 67" version="1.1" xmlns="http://www.w3.org/2000/svg" xmlns:xlink="http://www.w3.org/1999/xlink">
    <!-- Generator: Sketch 39.1 (31720) - http://www.bohemiancoding.com/sketch -->
    <title>to top</title>
    <desc>Created with Sketch.</desc>
    <defs></defs>
    <g id="Page-1" stroke="none" stroke-width="1" fill="none" fill-rule="evenodd">
        <g id="文档-•-示例" transform="translate(-1340.000000, -831.000000)" fill="#B3B3B3">
            <g id="to-top" transform="translate(1340.000000, 831.000000)">
                <path d="M31.9047619,16 L51.5,16 L51.5,12 L8.5,12 L8.5,16 L28.0952381,16 L10,35 L23,35 L23,55 L37,55 L37,35 L50,35 L31.9047619,16 Z M0,7.99861261 C0,3.58110085 3.57358932,0 7.99854961,0 L52.0014504,0 C56.4189274,0 60,3.578524 60,7.99861261 L60,59.0013874 C60,63.4188992 56.4264107,67 52.0014504,67 L7.99854961,67 C3.58107264,67 0,63.421476 0,59.0013874 L0,7.99861261 Z" id="Combined-Shape"></path>
            </g>
        </g>
    </g>
</svg>