<?xml version="1.0" encoding="utf-8"?>
<!-- Generator: Adobe Illustrator 19.2.1, SVG Export Plug-In . SVG Version: 6.00 Build 0)  -->
<svg version="1.1" id="图层_1" xmlns="http://www.w3.org/2000/svg" xmlns:xlink="http://www.w3.org/1999/xlink" x="0px" y="0px"
	 viewBox="0 0 56 56" style="enable-background:new 0 0 56 56;" xml:space="preserve">
<path d="M28,55.2C13,55.2,0.8,43,0.8,28S13,0.8,28,0.8S55.2,13,55.2,28S43,55.2,28,55.2z M28,41.2c-1.7,0-3.5,0.1-5.4,0.2l-0.9,0.1
	l0.2,0.9c0.9,3.8,2.1,7.2,3.6,10.4l0.2,0.4l0.7,0c0.5,0,1,0.1,1.5,0.1s1,0,1.5-0.1l0.7,0l0.2-0.4c1.5-3.1,2.7-6.6,3.6-10.4l0.2-0.9
	l-0.9-0.1C31.5,41.2,29.7,41.2,28,41.2z M36.1,42.5c-0.7,3.2-1.7,6.2-2.8,8.9l-0.6,1.5l1.5-0.4c4.7-1.2,8.9-3.7,12.3-7.2l0.9-0.9
	L46.1,44c-2.9-0.9-6-1.6-9.1-2.1l-0.7-0.1L36.1,42.5z M19,41.9c-3.2,0.5-6.2,1.2-9.1,2.1l-1.2,0.4l0.9,0.9c3.3,3.5,7.6,6.1,12.3,7.2
	l1.5,0.4l-0.6-1.5c-1.1-2.7-2.1-5.7-2.8-8.9l-0.2-0.7L19,41.9z M37.6,29.7c-0.1,3.4-0.4,6.5-0.9,9.4l-0.1,0.8l0.8,0.1
	c3.7,0.5,7.3,1.4,10.6,2.5l0.6,0.2l0.3-0.5c2.5-3.7,4-7.9,4.3-12.3l0.1-0.9H37.6L37.6,29.7z M2.8,29.8c0.3,4.4,1.8,8.7,4.3,12.3
	l0.3,0.5L8,42.5c3.3-1.1,6.9-1.9,10.6-2.5l0.8-0.1l-0.1-0.8c-0.5-2.8-0.8-6-0.9-9.4l0-0.8H2.7L2.8,29.8z M20.3,29.8
	c0.1,3.3,0.4,6.3,0.9,9.1l0.1,0.7l0.7-0.1c2.1-0.2,4-0.3,5.9-0.3s3.9,0.1,5.9,0.3l0.7,0.1l0.1-0.7c0.5-2.8,0.8-5.9,0.9-9.1l0-0.8
	H20.3L20.3,29.8z M48,13.5c-3.3,1.1-6.9,1.9-10.6,2.5l-0.8,0.1l0.1,0.8c0.5,2.8,0.8,6,0.9,9.4l0,0.8h15.6l-0.1-0.9
	c-0.3-4.4-1.8-8.7-4.3-12.3l-0.3-0.5L48,13.5z M21.2,17.1c-0.5,2.8-0.8,5.9-0.9,9.1l0,0.8h15.5l0-0.8c-0.1-3.3-0.4-6.3-0.9-9.1
	l-0.1-0.7l-0.7,0.1c-2.1,0.2-4,0.3-5.9,0.3s-3.9-0.1-5.9-0.3l-0.7-0.1L21.2,17.1z M7,13.8c-2.5,3.7-4,7.9-4.3,12.3L2.7,27h15.6
	l0-0.8c0.1-3.4,0.4-6.5,0.9-9.4l0.1-0.8L18.6,16c-3.7-0.5-7.3-1.4-10.6-2.5l-0.6-0.2L7,13.8z M28,2.7c-0.5,0-1,0-1.5,0.1l-0.8,0.1
	l-0.2,0.4c-1.5,3.1-2.7,6.6-3.6,10.4l-0.2,0.9l0.9,0.1c1.9,0.2,3.6,0.2,5.4,0.2c1.7,0,3.5-0.1,5.4-0.2l0.9-0.1l-0.2-0.9
	c-0.9-3.8-2.1-7.3-3.6-10.4l-0.2-0.4l-0.8-0.1C29,2.7,28.5,2.7,28,2.7z M33.3,4.6c1.1,2.7,2.1,5.7,2.8,8.9l0.2,0.7l0.7-0.1
	c3.2-0.5,6.2-1.2,9.1-2.1l1.2-0.4l-0.9-0.9c-3.3-3.5-7.6-6.1-12.3-7.2l-1.5-0.4L33.3,4.6z M21.8,3.5c-4.7,1.2-8.9,3.7-12.3,7.2
	l-0.9,0.9L9.9,12c2.9,0.9,6,1.6,9.1,2.1l0.7,0.1l0.2-0.7c0.7-3.2,1.7-6.2,2.8-8.9l0.6-1.5L21.8,3.5z"/>
<title>API</title>
<desc>Created with Sketch.</desc>
</svg>
