<?xml version="1.0" encoding="UTF-8" standalone="no"?>
<svg width="56px" height="56px" viewBox="0 0 56 56" version="1.1" xmlns="http://www.w3.org/2000/svg" xmlns:xlink="http://www.w3.org/1999/xlink">
    <!-- Generator: Sketch 3.8.3 (29802) - http://www.bohemiancoding.com/sketch -->
    <title>API</title>
    <desc>Created with Sketch.</desc>
    <defs></defs>
    <g id="Page-1" stroke="none" stroke-width="1" fill="none" fill-rule="evenodd">
        <g id="文档-•-首页" transform="translate(-693.000000, -1050.000000)" fill="#000000">
            <g id="View2" transform="translate(0.000000, 798.000000)">
                <g id="API" transform="translate(693.000000, 252.000000)">
                    <path d="M28,55.4166667 C26.6871111,55.4166667 25.5686667,54.9546667 24.6446667,54.0306667 L1.967,31.353 C1.043,30.429 0.581,29.3105556 0.581,27.9976667 C0.581,26.6847778 1.043,25.5663333 1.967,24.6423333 L18.228,8.45366667 L18.8836667,9.037 L25.228,15.309 L25.081,15.82 C24.983,16.1124444 24.934,16.4041111 24.934,16.695 C24.934,17.9596667 25.4932222,18.8587778 26.6116667,19.3923333 L27.0503333,19.684 L27.0503333,36.3813333 L26.6116667,36.6006667 C25.4932222,37.1357778 24.934,38.0348889 24.934,39.298 C24.934,40.124 25.2381111,40.8411111 25.8463333,41.4493333 C26.4545556,42.0575556 27.1716667,42.3616667 27.9976667,42.3616667 C28.8236667,42.3616667 29.5407778,42.0575556 30.149,41.4493333 C30.7572222,40.8411111 31.0613333,40.124 31.0613333,39.298 C31.0613333,38.0333333 30.5021111,37.1342222 29.3836667,36.6006667 L28.945,36.3813333 L28.945,18.8813333 L36.82,26.6116667 L36.6006667,27.1226667 C36.5524444,27.4151111 36.5283333,27.7067778 36.5283333,27.9976667 C36.5283333,28.8236667 36.82,29.5407778 37.4033333,30.149 C37.9866667,30.7572222 38.7037778,31.0613333 39.5546667,31.0613333 C40.4055556,31.0613333 41.1226667,30.7572222 41.706,30.149 C42.2893333,29.5407778 42.581,28.8236667 42.581,27.9976667 C42.581,27.1716667 42.2893333,26.4545556 41.706,25.8463333 C41.1226667,25.2381111 40.3931111,24.934 39.5173333,24.934 C39.2248889,24.934 38.9091111,25.0071111 38.57,25.1533333 L38.059,25.3003333 L30.7673333,18.081 L30.9143333,17.6423333 C30.9625556,17.3498889 30.9866667,17.0341111 30.9866667,16.695 C30.9866667,15.869 30.695,15.1643333 30.1116667,14.581 C29.5283333,13.9976667 28.8236667,13.706 27.9976667,13.706 C27.657,13.706 27.3412222,13.755 27.0503333,13.853 L26.5393333,14 L19.467,7.14466667 L24.6446667,1.967 C25.5686667,1.043 26.6871111,0.581 28,0.581 C29.3128889,0.581 30.4313333,1.043 31.3553333,1.967 L54.033,24.6446667 C54.957,25.5686667 55.419,26.6871111 55.419,28 C55.419,29.3128889 54.957,30.4313333 54.033,31.3553333 L31.3553333,54.033 C30.4313333,54.957 29.3128889,55.419 28,55.419 L28,55.4166667 Z M18.2303333,10.7916667 L3.20833333,25.8136667 C2.625,26.4452222 2.33333333,27.1747778 2.33333333,28.0023333 C2.33333333,28.8298889 2.625,29.5594444 3.20833333,30.191 L25.8136667,52.7963333 C26.397,53.3796667 27.1265556,53.6713333 28.0023333,53.6713333 C28.8781111,53.6713333 29.6076667,53.3796667 30.191,52.7963333 L52.7963333,30.191 C53.3796667,29.5594444 53.6713333,28.8298889 53.6713333,28.0023333 C53.6713333,27.1747778 53.3796667,26.4452222 52.7963333,25.8136667 L30.191,3.20833333 C29.6076667,2.625 28.8781111,2.33333333 28.0023333,2.33333333 C27.1265556,2.33333333 26.397,2.625 25.8136667,3.20833333 L21.9496667,7.07233333 L26.9803333,12.103 C27.321,12.005 27.6616667,11.956 28.0023333,11.956 C29.3152222,11.956 30.4336667,12.418 31.3576667,13.342 C32.2816667,14.266 32.7436667,15.3844444 32.7436667,16.6973333 C32.7436667,16.9897778 32.7195556,17.2814444 32.6713333,17.5723333 L38.577,23.4056667 C38.8694444,23.3076667 39.2101111,23.2586667 39.599,23.2586667 C40.8636667,23.2586667 41.9572222,23.7206667 42.8796667,24.6446667 C43.8021111,25.5686667 44.2641111,26.6871111 44.2656667,28 C44.2672222,29.3128889 43.8052222,30.4313333 42.8796667,31.3553333 C41.9541111,32.2793333 40.8481111,32.7413333 39.5616667,32.7413333 C38.2752222,32.7413333 37.1692222,32.2793333 36.2436667,31.3553333 C35.3181111,30.4313333 34.8561111,29.3128889 34.8576667,28 C34.8576667,27.7075556 34.8817778,27.4158889 34.93,27.125 L30.6273333,22.8946667 L30.6273333,35.364 C32.0366667,36.288 32.7413333,37.6008889 32.7413333,39.3026667 C32.7413333,40.6155556 32.2793333,41.734 31.3553333,42.658 C30.4313333,43.582 29.3128889,44.044 28,44.044 C26.6871111,44.044 25.5686667,43.582 24.6446667,42.658 C23.7206667,41.734 23.2586667,40.6155556 23.2586667,39.3026667 C23.2586667,37.6008889 23.9633333,36.288 25.3726667,35.364 L25.3726667,20.6336667 C23.9633333,19.7096667 23.2586667,18.3967778 23.2586667,16.695 C23.2586667,16.4025556 23.2827778,16.1108889 23.331,15.82 L18.2303333,10.7916667 Z" id="Shape"></path>
                </g>
            </g>
        </g>
    </g>
</svg>