<?xml version="1.0" encoding="utf-8"?>
<!-- Generator: Adobe Illustrator 18.1.0, SVG Export Plug-In . SVG Version: 6.00 Build 0)  -->
<svg version="1.1" id="图层_1" xmlns="http://www.w3.org/2000/svg" xmlns:xlink="http://www.w3.org/1999/xlink" x="0px" y="0px"
	 viewBox="-1607.3 0 3527.3 1080" enable-background="new -1607.3 0 3527.3 1080" xml:space="preserve">
<g>
	<g>
		<path fill="#4E535C" d="M711.7,270.2c0-47.4-38.4-86.4-86.4-86.4c-47.4,0-86.4,38.4-86.4,86.4c0,47.4,38.4,86.4,86.4,86.4
			S711.7,318.2,711.7,270.2z M593.9,270.2c0-17.3,14.1-32,32-32c17.3,0,32,14.1,32,32c0,17.3-14.1,32-32,32
			C608,302.2,593.9,288.2,593.9,270.2z M1273,427.7c-102.4,0-197.8-81.9-298.2-168.3c-105-90.2-213.8-183-338.6-183
			s-233,92.8-337.9,183C197.8,345.8,102.4,427.7,0,427.7v58.2c123.5,0,231.7-92.8,336-182.4c101.1-86.4,197.1-169,300.2-169
			c103.7,0,199,81.9,300.8,169c104.3,89.6,212.5,182.4,336,182.4V427.7z M1016.3,249.1c85.1-64.6,168.3-118.4,256-118.4V76.3
			c-110.1,0-208,65.3-302.1,137c5.1,3.8,10.9,8.3,16,12.2C996.5,233.8,1006.7,241.4,1016.3,249.1z M883.8,292
			c-81.9,64.6-161.9,118.4-247,118.4s-165.1-53.8-247-118.4c-9.6,7.7-19.8,16-30.1,24.3c-4.5,3.8-9.6,7.7-14.1,11.5
			c90.2,71.7,185,137,291.2,137s201-65.3,291.2-137c-4.5-3.8-9.6-7.7-14.1-11.5C903.7,308,893.4,299.7,883.8,292z M286.1,225.4
			c5.1-3.8,10.2-8.3,16-12.2C208,141.6,110.1,76.3,0,76.3v54.4c87.7,0,170.9,53.8,256,118.4C266.2,241.4,275.8,233.8,286.1,225.4z
			 M119.7,695.8c10.2,0,20.5,1.3,30.1,4.5c9.6,3.2,18.6,6.4,26.9,10.2l14.7-33.9c-21.8-10.9-45.4-16-71.7-16
			c-24.3,0-46.1,5.1-64,15.4s-32,25-41.6,44.8C4.5,740-0.6,763-0.6,788.6c0,41,9.6,72.3,29.4,94.7c19.8,21.8,48,33.3,85.1,33.3
			c25,0,47.4-3.8,67.2-10.9v-34.6c-10.9,3.2-21.1,5.8-31.4,8.3c-10.2,1.9-20.5,3.2-31.4,3.2c-25,0-43.5-7.7-57-23.7
			c-12.8-15.4-19.8-38.4-19.8-69.1c0-29.4,7-51.8,20.5-68.5C77.4,704.2,96,695.8,119.7,695.8z M215.7,917.9h42.9V658.7h-42.9V917.9z
			 M389.1,723.4c-27.5,0-48.6,8.3-64,25.6c-15.4,17.3-23,41-23,71c0,19.8,3.8,36.5,10.2,51.2c7,14.7,17.3,26.2,30.1,33.9
			c12.8,7.7,28.2,12.2,45.4,12.2c27.5,0,48.6-8.3,64-25.6s23-41,23-71.7c0-29.4-7.7-53.1-23-70.4
			C435.8,732.3,415.4,723.4,389.1,723.4z M388.5,885.3c-31.4,0-46.7-21.8-46.7-64.6c0-20.5,3.8-36.5,10.9-47.4s19.2-16.6,35.2-16.6
			c30.7,0,46.7,21.1,46.7,64C434.6,863.5,419.2,885.3,388.5,885.3z M648.3,818.7c0,23.7-3.8,41-12.2,51.2
			c-8.3,10.2-21.1,15.4-38.4,15.4c-12.8,0-23-3.8-28.8-10.9c-6.4-7-9-18.6-9-32.6V724h-42.2v124.8c0,23,5.8,41,17.3,52.5
			c11.5,11.5,29.4,17.3,53.1,17.3c13.4,0,25.6-2.6,36.5-7.7c10.9-5.1,19.2-12.2,25-21.1h1.9l5.8,25h32.6V724h-41.6V818.7z
			 M844.2,724.6c0,7.7,1.3,17.9,3.2,30.7h-2.6c-12.8-17.9-32-26.2-57-26.2c-23.7,0-42.2,8.3-55.7,25c-13.4,16.6-19.8,39.7-19.8,69.8
			c0,29.4,6.4,52.5,19.8,69.1c13.4,16.6,32,24.3,55.7,24.3c25,0,44.2-9,57-26.9h1.9l7,23.7h31.4V658.7h-40.3v65.9H844.2z
			 M846.1,829.6c0,19.8-3.8,34.6-11.5,43.5c-7.7,9-19.8,13.4-36.5,13.4c-14.7,0-26.2-5.1-33.3-16c-7.7-10.9-10.9-26.2-10.9-46.1
			c0-20.5,3.8-35.8,11.5-47.4c7.7-10.9,18.6-16.6,32.6-16.6c16.6,0,28.8,5.1,36.5,14.7c7.7,9.6,11.5,25.6,11.5,48.6L846.1,829.6
			L846.1,829.6z M951.7,917.9h16.6V728.5h-16.6V917.9z M960,658.7c-7,0-10.2,5.8-10.2,16.6c0,11.5,3.2,16.6,10.2,16.6
			c3.2,0,6.4-1.3,8.3-4.5s3.2-7,3.2-12.2c0-5.1-1.3-9.6-3.2-12.2C965.8,660,963.2,658.7,960,658.7z M1099.5,723.4
			c-32,0-53.8,10.2-66.6,30.1h-1.3l-3.2-26.2h-14.7v190.7h17.3V812.3c0-25.6,5.1-44.2,16-55.7s27.5-17.3,50.6-17.3
			c17.3,0,29.4,4.5,37.8,12.8c8.3,9,12.2,22.4,12.2,41.6v123.5h17.3V793.1C1164.8,746.4,1143,723.4,1099.5,723.4z M1315.2,827
			c-7.7-5.1-19.2-10.2-35.8-16.6c-19.8-7-32.6-14.1-39.7-19.8s-10.2-13.4-10.2-23.7c0-9,4.5-16,12.8-21.1c9-5.1,20.5-7.7,35.2-7.7
			c15.4,0,32,3.8,49.9,11.5l6.4-15.4c-17.9-7.7-36.5-11.5-55.7-11.5c-20.5,0-36.5,3.8-48,12.2s-17.3,19.2-17.3,33.3
			c0,9,1.9,16.6,5.8,22.4c3.8,6.4,9.6,11.5,16.6,16.6c7.7,5.1,20.5,10.9,38.4,17.3c17.3,6.4,29.4,12.8,36.5,19.2
			c7.7,6.4,10.9,14.1,10.9,23.7c0,10.2-4.5,18.6-14.1,24.3c-9.6,6.4-23,9-41,9c-20.5,0-39.7-4.5-58.2-14.1v18.6
			c14.1,7.7,33.9,11.5,58.2,11.5c23,0,40.3-4.5,53.1-13.4c12.2-9,18.6-21.8,18.6-38.4c0-8.3-1.9-15.4-5.8-21.8
			C1328,837.3,1322.2,832.2,1315.2,827z M1391.4,658.7c-7,0-10.2,5.8-10.2,16.6c0,11.5,3.2,16.6,10.2,16.6c3.2,0,6.4-1.3,8.3-4.5
			c1.9-3.2,3.2-7,3.2-12.2c0-5.1-1.3-9.6-3.2-12.2C1397.1,660,1394.6,658.7,1391.4,658.7z M1383,917.9h16.6V728.5H1383V917.9z
			 M1506.6,723.4c-20.5,0-37.1,5.8-49.3,17.3c-12.2,11.5-17.9,26.9-17.9,46.1c0,12.8,3.2,23.7,9.6,33.3c6.4,9.6,14.7,16.6,26.2,21.8
			c-16,9.6-24.3,21.1-24.3,33.9c0,5.8,1.9,10.9,5.1,15.4c3.2,4.5,8.3,7.7,13.4,10.2c-14.1,3.2-25,9-33.3,17.9
			c-8.3,9-12.2,19.2-12.2,32.6c0,16.6,6.4,29.4,19.8,38.4c13.4,9,32,14.1,55.7,14.1c30.1,0,53.1-5.8,69.8-16.6
			c16-10.9,24.3-26.2,24.3-46.7c0-16.6-5.8-28.8-16.6-37.1c-10.9-8.3-26.9-12.8-47.4-12.8h-33.3c-10.9,0-18.6-1.3-23-4.5
			c-4.5-2.6-7-7-7-13.4c0-5.8,1.9-10.9,5.1-15.4c3.8-5.1,9-9,16-12.8c3.2,0.6,9.6,1.3,17.9,1.3c20.5,0,37.1-5.8,49.3-17.3
			c12.2-11.5,18.6-26.2,18.6-44.8c0-15.4-5.1-30.1-16-42.9l39.7-2.6v-12.2H1536C1528.3,724.6,1518.7,723.4,1506.6,723.4z
			 M1494.4,909h31.4c17.3,0,30.1,2.6,37.8,7.7c7.7,5.1,11.5,13.4,11.5,25c0,32-25,48-74.9,48c-39,0-58.2-12.8-58.2-39
			C1441.9,922.4,1459.8,909,1494.4,909z M1555.2,786.1c0,15.4-4.5,26.9-12.8,35.2c-8.3,8.3-20.5,12.2-36.5,12.2
			c-14.7,0-26.9-3.8-35.8-12.2c-9-8.3-13.4-19.8-13.4-34.6c0-15.4,4.5-27.5,12.8-36.5c9-9,20.5-12.8,35.8-12.8
			c15.4,0,27.5,3.8,36.5,12.2C1550.7,757.3,1555.2,769.4,1555.2,786.1z M1725.4,733.6c-16,0-30.1,2.6-41,7
			c-10.9,5.1-19.8,12.8-26.9,23.7h-1.3l0.6-23v-82.6h-17.3v258.6h17.3v-99.8c0-24.3,5.1-42.2,16-53.1c10.9-10.9,27.5-16.6,50.6-16.6
			c17.3,0,29.4,3.8,37.8,12.2c8.3,8.3,12.2,21.8,12.2,39.7v117.1h17.3V799.5C1790.7,755.4,1769,733.6,1725.4,733.6z M1891.2,902.6
			c-10.9,0-19.2-3.2-24.3-10.2c-5.1-7-7.7-17.9-7.7-32v-119h56.3v-14.7h-56.3v-45.4h-9.6l-9,42.9l-28.8,7.7v10.2h28.8v121.6
			c0,19.2,3.8,33.3,12.2,41.6c8.3,9,20.5,13.4,37.8,13.4c10.9,0,21.1-1.3,29.4-3.8v-14.1C1911.7,901.3,1902.1,902.6,1891.2,902.6z"
			/>
	</g>
</g>
<g>
	<path fill-rule="evenodd" clip-rule="evenodd" fill="#4E535C" d="M-1414.4,565.2c4.3,0,5.5,1.7,6.8,6.8l30.6,126.4h-74.8
		l30.6-126.4C-1419.9,566.9-1418.6,565.2-1414.4,565.2z M-691.7,686.6c-20.8,29.7-46.2,56.5-76.1,80.7V532.6c0-9.5-7.6-17.2-17-17.2
		h-34.8c-6.8,0-12.7,4.3-15.7,10.3l-64,131.7c-2.1,3.9-3,6-4.7,6s-2.5-2.2-4.7-6l-64-131.7c-3-6-8.9-10.3-15.7-10.3h-34.8
		c-9.3,0-17,7.7-17,17.2v296c0,4.3,3.4,6.5,7.2,6.5h42.8c3.8,0,6.8-4.3,6.8-8.6v-200c0-3,0.4-4.3,1.3-4.3c0.4,0,1.3,1.3,2.1,2.6
		l41.1,82.2c2.5,4.7,8.1,7.3,13.6,7.3h42.8c5.5,0,11-2.6,13.6-7.3l40.7-82.2c0.8-1.3,1.7-2.6,2.1-2.6c0.8,0,1.3,1.3,1.3,4.3v180.2
		c-50.8,30.3-111,54.9-180.8,73.6c-146.3,39.4-271.9,35.1-376.8-12.8c-35.7-16.3-67.3-37.5-94.8-63.4l13.8-57.1h97.8l19.6,80.9
		c0.9,3.8,4.3,7.2,8.1,7.2h45.1c4.3,0,7.7-3,7.7-7.2c0-0.4-0.4-1.3-0.4-2.1l-69.7-266.9c-10.2-39.6-40.8-43.4-59.1-43.4
		c-18.3,0-48.9,3.8-59.1,43.4l-50.1,191.9c-29.8-42-52.6-92.3-68.3-151c-32-120.1-14.1-223.6,54-310.6c22.7-29.1,50-55.4,81.7-79.2
		c-9,19.2-14,43.3-14,72.6v51.2c0,94.7,51.6,134.2,122.5,134.2s122.5-39.6,122.5-134.2v-51.2c0-94.7-51.6-134.2-122.5-134.2
		c-1.6,0-3.2,0.1-4.7,0.2c41.5-19.3,87.5-35.9,138.5-49.6c129.4-34.8,248.1-29.3,356.2,16.4c22.7,9.6,43.6,20.8,62.9,33.6
		c-8.7-0.4-18.8-0.6-31-0.6c-56.2,0-99.9,15.1-99.9,88.2v143.3c0,73.1,43.7,88.2,99.9,88.2c51.5,0,68.3-3.9,82.2-6
		c6.5-0.9,8.6-3,8.6-9v-27.5c0-4.7-3.9-8.6-8.6-8.6h-88.2c-25.1,0-34.2-8.6-34.2-37v-52.1h117.2c4.8,0,8.6-3.9,8.6-8.6v-31
		c0-4.7-3.9-8.6-8.6-8.6h-117.2v-43c0-28.4,9.1-37,34.2-37l97.2-0.1c40.1,42.6,68.8,95.8,85.8,159.7
		C-614.5,487.7-628.8,596.9-691.7,686.6z M-1257.9,520.9c-8.4,1.3-13.5,4.3-13.5,12.8v292.9c0,4.7,3.8,8.5,8.4,8.5h42.2
		c4.6,0,8-3.8,8-8.5V715.5c9.7,0.4,26.6,1.7,37.6,1.7c65,0,121.6-24.3,121.6-99.6v-3.8c0-75.4-56.6-98.3-121.6-98.3
		C-1206,515.4-1235.9,517.5-1257.9,520.9z M-959.8,156.4c0-4.7-3.4-8.2-8.1-8.2h-36.5c-4.7,0-8.1,3.4-8.1,8.2v226.3
		c0,2.6-1.3,3.9-2.1,3.9c-1.3,0-2.5-1.3-3.4-3.4l-98.8-221.1c-5.1-11.2-9.7-13.8-18.7-13.8h-45.8c-9.3,0-17,7.8-17,17.2v293.9
		c0,4.7,3.8,8.6,8.5,8.6h36c4.7,0,8.1-3.9,8.1-8.6V243c0-2.6,0.8-3.4,2.1-3.4c1.3,0,2.5,0.9,3.8,3.4l94.1,209.5
		c6.8,15.5,15.7,15.5,25.9,15.5h42.8c9.3,0,17-7.7,17-17.2V156.4z M-1111.8,613.7v3.8c0,34.1-17.7,51.1-63.3,51.1
		c-7.2,0-30.8-0.9-37.6-1.3V566c7.6-0.9,28.7-1.7,37.6-1.7C-1132.9,564.3-1111.8,578-1111.8,613.7z M-1285.4,282.5v51.2
		c0,56.8-20.2,82.2-62.3,82.2s-62.3-25.4-62.3-82.2v-51.2c0-56.8,20.2-82.2,62.3-82.2S-1285.4,225.7-1285.4,282.5z"/>
</g>
<line fill="none" stroke="#4E535C" stroke-width="10" stroke-miterlimit="10" x1="-326" y1="195.3" x2="-326" y2="788"/>
</svg>
