<svg id="图层_1" data-name="图层 1" xmlns="http://www.w3.org/2000/svg" viewBox="0 0 100 100"><defs><style>.cls-1{fill:#323439;}.cls-2{fill:#fff;}</style></defs><title>未标题-2</title><rect class="cls-1" width="100" height="100"/><path class="cls-2" d="M50,26a24.61,24.61,0,0,0-7.78,48,1.24,1.24,0,0,0,1.68-1.18c0-.59,0-2.53,0-4.58-6.85,1.49-8.29-2.9-8.29-2.9-1.12-2.84-2.73-3.6-2.73-3.6-2.23-1.53.17-1.5,0.17-1.5a5.17,5.17,0,0,1,3.77,2.54c2.19,3.76,5.76,2.67,7.16,2a5.24,5.24,0,0,1,1.56-3.29C40,60.86,34.3,58.75,34.3,49.32a9.52,9.52,0,0,1,2.54-6.61,8.84,8.84,0,0,1,.24-6.51s2.07-.66,6.77,2.52a23.34,23.34,0,0,1,12.32,0c4.7-3.18,6.76-2.52,6.76-2.52a8.83,8.83,0,0,1,.24,6.51,9.5,9.5,0,0,1,2.53,6.61c0,9.45-5.76,11.53-11.24,12.14A5.88,5.88,0,0,1,56.13,66c0,3.29,0,5.94,0,6.75A1.23,1.23,0,0,0,57.79,74,24.61,24.61,0,0,0,50,26ZM34.61,61.05a0.38,0.38,0,1,1-.22-0.37A0.31,0.31,0,0,1,34.61,61.05Zm1.21,1.08a0.45,0.45,0,1,1-.07-0.51A0.37,0.37,0,0,1,35.82,62.13Zm0.83,1.38a0.43,0.43,0,0,1-.55-0.21,0.43,0.43,0,0,1,0-.59A0.52,0.52,0,0,1,36.65,63.52Zm1.4,1.6A0.46,0.46,0,0,1,37.42,65a0.39,0.39,0,1,1,.5-0.53A0.46,0.46,0,0,1,38.05,65.12Zm1.82,0.54a0.57,0.57,0,0,1-1-.31A0.57,0.57,0,0,1,39.87,65.66Zm2.07,0.23a0.47,0.47,0,0,1-.52.37,0.39,0.39,0,1,1,0-.73A0.47,0.47,0,0,1,41.93,65.89Zm2-.08a0.57,0.57,0,1,1-.59-0.27A0.48,0.48,0,0,1,44,65.81Z"/></svg>