<?xml version="1.0" encoding="UTF-8" standalone="no"?>
<svg width="90px" height="43px" viewBox="0 0 90 43" version="1.1" xmlns="http://www.w3.org/2000/svg" xmlns:xlink="http://www.w3.org/1999/xlink">
    <!-- Generator: Sketch 3.8.3 (29802) - http://www.bohemiancoding.com/sketch -->
    <title>Slice 1</title>
    <desc>Created with Sketch.</desc>
    <defs></defs>
    <g id="Page-1" stroke="none" stroke-width="1" fill="none" fill-rule="evenodd">
        <g id="Cloudinsight-LOGO" transform="translate(1.000000, 0.000000)" fill="#4E535C">
            <path d="M29.0002457,7.52856616 C28.1888937,7.52856616 27.5289023,8.18859811 27.5289023,9 C27.5289023,9.81140189 28.1888937,10.4714338 29.0002457,10.4714338 C29.8115978,10.4714338 30.4715892,9.81140189 30.4715892,9 C30.4715892,8.18859811 29.8115978,7.52856616 29.0002457,7.52856616 L29.0002457,7.52856616 Z M29.0002457,13 C26.7947048,13 25,11.2056764 25,9 C25,6.79432363 26.7947048,5 29.0002457,5 C31.2057866,5 33,6.79432363 33,9 C33,11.2056764 31.2057866,13 29.0002457,13 L29.0002457,13 Z" id="Fill-1"></path>
            <path d="M45.1682905,8.48831989 C40.3085428,4.31523817 35.2833702,0 29.5002601,0 C23.71715,0 18.6914572,4.31523817 13.8317095,8.48831989 C9.15923539,12.5008175 4.74530273,16.2906033 0,16.2906033 L0,19 C5.72796847,19 10.7281713,14.7063485 15.5634693,10.554327 C20.2619537,6.51971624 24.6992955,2.70887023 29.5002601,2.70887023 C34.3007045,2.70887023 38.7380463,6.51971624 43.4365307,10.554327 C48.2718287,14.7063485 53.2720315,19 59,19 L59,16.2906033 C54.2546973,16.2906033 49.8412848,12.5008175 45.1682905,8.48831989" id="Fill-3"></path>
            <path d="M45.7334803,6.92088704 C46.1992244,7.28401246 46.662307,7.64420551 47.1232606,8 C51.0818189,4.99773963 54.9211467,2.51499786 59,2.51499786 L59,0 C53.8954452,0 49.3556384,3.02376443 45,6.35054066 C45.2448483,6.54065612 45.4896966,6.73077158 45.7334803,6.92088704" id="Fill-5"></path>
            <path d="M42.3440944,11.1182113 C41.8798993,10.7418902 41.4192828,10.3680127 40.9601999,10 C37.1505283,13.0051927 33.4502594,15.4854909 29.5,15.4854909 C25.5497406,15.4854909 21.8494717,13.0051927 18.0398001,10 C17.5807172,10.3685014 17.1190783,10.7423789 16.6548832,11.1191887 C16.4371,11.2956198 16.2188056,11.4725396 16,11.6494593 C20.1925815,14.9806341 24.5656265,18 29.5,18 C34.4343735,18 38.8069073,14.9806341 43,11.6494593 C42.7806832,11.4725396 42.5623888,11.295131 42.3440944,11.1182113" id="Fill-7"></path>
            <path d="M13.2670519,6.92082111 C13.5108357,6.73069404 13.7551517,6.54056696 14,6.35043988 C9.64436165,3.02346041 5.10455479,0 0,0 L0,2.51466276 C4.07885332,2.51466276 7.91871341,4.99755621 11.8767394,8 C12.337693,7.64467253 12.8007756,7.28396872 13.2670519,6.92082111" id="Fill-9"></path>
            <path d="M5.54966471,28.7064522 C4.45113529,28.7064522 3.58819412,29.0899304 2.95872353,29.856887 C2.32978235,30.6238435 2.01531176,31.6824522 2.01531176,33.032713 C2.01531176,34.4461043 2.31813529,35.5151478 2.92272353,36.2398435 C3.52784118,36.9650609 4.40348824,37.3276696 5.54966471,37.3276696 C6.04572353,37.3276696 6.52537059,37.2791478 6.98913529,37.1815826 C7.4529,37.0845391 7.93519412,36.9598435 8.43654706,36.8074957 L8.43654706,38.4228 C7.51960588,38.7645391 6.47984118,38.9351478 5.31778235,38.9351478 C3.60672353,38.9351478 2.29272353,38.4243652 1.37578235,37.4028 C0.458841176,36.380713 -0.000158823529,34.9188 -0.000158823529,33.0170609 C-0.000158823529,31.8191478 0.222723529,30.7709739 0.667958824,29.8725391 C1.11319412,28.9741043 1.75642941,28.2859304 2.59925294,27.8080174 C3.44154706,27.3295826 4.43048824,27.0906261 5.56554706,27.0906261 C6.75937059,27.0906261 7.86319412,27.3379304 8.87595882,27.8314957 L8.18825294,29.3998435 C7.79384118,29.2156696 7.37666471,29.0544522 6.93725294,28.9151478 C6.49731176,28.7758435 6.03460588,28.7064522 5.54966471,28.7064522" id="Fill-11"></path>
            <polygon id="Fill-14" points="10 39 12 39 12 27 10 27"></polygon>
            <path d="M15.8493835,34.4841412 C15.8493835,36.4896297 16.5702181,37.4921139 18.0113816,37.4921139 C19.4378754,37.4921139 20.1511224,36.4896297 20.1511224,34.4841412 C20.1511224,32.4999711 19.4328169,31.5078861 17.9962061,31.5078861 C17.2424913,31.5078861 16.6961745,31.7642267 16.3577616,32.2774279 C16.018337,32.7901092 15.8493835,33.5258536 15.8493835,34.4841412 M22,34.4841412 C22,35.903114 21.6459058,37.0106303 20.9382232,37.8061702 C20.2300348,38.6022301 19.2441353,39 17.9810307,39 C17.1914006,39 16.493835,38.8169738 15.887828,38.4498816 C15.2813152,38.0838292 14.8154284,37.557629 14.4891559,36.8718008 C14.1633892,36.1859726 14,35.3899128 14,34.4841412 C14,33.0760876 14.3520708,31.9758507 15.0552008,31.1855104 C15.7578248,30.3946502 16.748277,30 18.0265571,30 C19.2491938,30 20.2173886,30.4040095 20.9301296,31.2130683 C21.6433765,32.0221272 22,33.1124848 22,34.4841412" id="Fill-16"></path>
            <path d="M30.4821404,38.8401929 L30.2110553,37.6813264 L30.1127258,37.6813264 C29.8449002,38.0914276 29.4635339,38.4142168 28.9680837,38.6481068 C28.4731767,38.883055 27.9081896,39 27.2736656,39 C26.1741138,39 25.353796,38.7338311 24.812169,38.2009643 C24.2705419,37.6680974 24,36.860595 24,35.7789864 L24,30 L25.9443162,30 L25.9443162,35.4514346 C25.9443162,36.1282338 26.0866495,36.6357008 26.371316,36.9738358 C26.6554394,37.3125 27.1014532,37.4818321 27.7088143,37.4818321 C28.518267,37.4818321 29.1131332,37.2458255 29.493413,36.7738123 C29.8736928,36.3028575 30.0638327,35.5128175 30.0638327,34.4042215 L30.0638327,30 L32,30 L32,38.8401929 L30.4821404,38.8401929 Z" id="Fill-17"></path>
            <path d="M36.9921032,37.5536885 C37.7607265,37.5536885 38.3203475,37.3464964 38.6699131,36.9326164 C39.0200053,36.5192405 39.2000526,35.8477567 39.2105817,34.9186691 L39.2105817,34.6676189 C39.2105817,33.6069568 39.0305344,32.8527978 38.6699131,32.4061502 C38.3092919,31.9595026 37.7449329,31.7361788 36.9763096,31.7361788 C36.3187681,31.7361788 35.812319,31.991262 35.4574888,32.5014283 C35.1026586,33.0115947 34.924717,33.7385313 34.924717,34.6832465 C34.924717,35.6168711 35.0968676,36.3286843 35.4411687,36.8186859 C35.7859963,37.3086876 36.3029745,37.5536885 36.9921032,37.5536885 M36.4914451,39 C35.3937878,39 34.5377731,38.6193917 33.9228744,37.8581751 C33.3079758,37.0964544 33,36.0282305 33,34.6524954 C33,33.271719 33.3121874,32.1969417 33.9344564,31.4276592 C34.5577784,30.6583767 35.4201106,30.2742396 36.5230324,30.2742396 C37.6785996,30.2742396 38.5588313,30.6830785 39.1632008,31.5002521 L39.2579626,31.5002521 C39.1679389,30.8963199 39.1231903,30.4189212 39.1231903,30.0685599 L39.1231903,27 L41,27 L41,38.8477567 L39.5369834,38.8477567 L39.2105817,37.7437405 L39.1231903,37.7437405 C38.5240853,38.5815829 37.6470124,39 36.4914451,39" id="Fill-18"></path>
            <path d="M44.1083162,39 L44.8762834,39 L44.8762834,30.2158716 L44.1083162,30.2158716 L44.1083162,39 Z M44,27.7757468 C44,27.2584039 44.162731,27 44.488193,27 C44.6483573,27 44.7741273,27.0674097 44.8644764,27.2016942 C44.9548255,27.3365136 45,27.5275078 45,27.7757468 C45,28.0181008 44.9548255,28.209095 44.8644764,28.3492644 C44.7741273,28.4894338 44.6483573,28.5595185 44.488193,28.5595185 C44.162731,28.5595185 44,28.2984396 44,27.7757468 L44,27.7757468 Z" id="Fill-19"></path>
            <path d="M53.1987626,39 L53.1987626,33.2733628 C53.1987626,32.3855163 53.0103635,31.7402008 52.6341067,31.3363408 C52.2583913,30.9330186 51.6747873,30.7313576 50.8843774,30.7313576 C49.8216551,30.7313576 49.0431555,30.998088 48.5499613,31.5315488 C48.0562258,32.0650096 47.8098995,32.9297323 47.8098995,34.1262548 L47.8098995,39 L47,39 L47,30.1704708 L47.687007,30.1704708 L47.8423821,31.3809751 L47.8916473,31.3809751 C48.4692962,30.460325 49.4973705,30 50.9742459,30 C52.9914153,30 54,31.0755258 54,33.2249641 L54,39 L53.1987626,39 Z" id="Fill-20"></path>
            <path d="M62,36.582673 C62,37.3592182 61.71186,37.9561543 61.1371237,38.3740095 C60.5623874,38.7918648 59.7458194,39 58.6889632,39 C57.5595575,39 56.6632364,38.8219757 56,38.4653988 L56,37.6122557 C56.8494983,38.0486001 57.7458194,38.2662441 58.6889632,38.2662441 C59.5230255,38.2662441 60.1569334,38.1236133 60.5891433,37.8394083 C61.0218678,37.5546751 61.2379727,37.1759113 61.2379727,36.7020602 C61.2379727,36.2662441 61.0661178,35.899102 60.721379,35.6011622 C60.3771546,35.3032224 59.8106509,35.0105652 59.0234114,34.7231907 C58.1785439,34.4094031 57.5852843,34.1399894 57.2436326,33.9138933 C56.9014664,33.6877971 56.6436841,33.4321183 56.4702856,33.1479134 C56.2968871,32.8631801 56.2099305,32.516112 56.2099305,32.1061807 C56.2099305,31.4574749 56.4754309,30.9445325 57.0064317,30.5662969 C57.5374325,30.1885895 58.2799074,30 59.2333419,30 C60.1445845,30 61.0100334,30.175383 61.8286596,30.5266772 L61.5415488,31.2445853 C60.7121173,30.8932911 59.9428865,30.7179081 59.2333419,30.7179081 C58.5438642,30.7179081 57.9974273,30.834654 57.5935169,31.0692023 C57.1890918,31.3032224 56.9868793,31.6275753 56.9868793,32.0427892 C56.9868793,32.4949815 57.1438127,32.8563127 57.4571649,33.1278394 C57.7705171,33.3988378 58.383329,33.7020602 59.2950862,34.0375066 C60.0565989,34.3190703 60.6112683,34.5731643 60.9585799,34.7992604 C61.3053769,35.0253566 61.5657319,35.2815637 61.739645,35.5694665 C61.9130435,35.856841 62,36.1944004 62,36.582673" id="Fill-21"></path>
            <path d="M64.1082606,39 L64.8758338,39 L64.8758338,30.2158716 L64.1082606,30.2158716 L64.1082606,39 Z M64,27.7757468 C64,27.2584039 64.1626475,27 64.4879425,27 C64.6480246,27 64.7737301,27.0674097 64.8645459,27.2016942 C64.9548486,27.3365136 65,27.5275078 65,27.7757468 C65,28.0181008 64.9548486,28.209095 64.8645459,28.3492644 C64.7737301,28.4894338 64.6480246,28.5595185 64.4879425,28.5595185 C64.1626475,28.5595185 64,28.2984396 64,27.7757468 L64,27.7757468 Z" id="Fill-22"></path>
            <path d="M67.527087,32.9246907 C67.527087,33.6073158 67.734104,34.1371705 68.1481382,34.5131791 C68.5621723,34.8897257 69.1160102,35.0779989 69.8091141,35.0779989 C70.5457723,35.0779989 71.1098266,34.8913394 71.5028902,34.5174825 C71.8948783,34.1436256 72.091679,33.6019365 72.091679,32.8924153 C72.091679,32.1398601 71.8895013,31.5745024 71.4862213,31.1984938 C71.0824035,30.8219473 70.5183492,30.633674 69.7924452,30.633674 C69.0885872,30.633674 68.535287,30.8353954 68.132007,31.2388381 C67.728727,31.6428187 67.527087,32.204411 67.527087,32.9246907 L67.527087,32.9246907 Z M66.8528028,40.4970414 C66.8528028,41.7105971 67.7545369,42.3173749 69.5574674,42.3173749 C71.8744455,42.3173749 73.0332034,41.5782679 73.0332034,40.0989779 C73.0332034,39.5680473 72.8514585,39.183432 72.4895819,38.9456697 C72.1266299,38.7073696 71.5389165,38.5879505 70.7264417,38.5879505 L69.2810862,38.5879505 C67.6620514,38.5879505 66.8528028,39.2243141 66.8528028,40.4970414 L66.8528028,40.4970414 Z M74,30.1705218 L74,30.7310382 L72.172335,30.845078 C72.660035,31.4518558 72.9036161,32.1178053 72.9036161,32.8440022 C72.9036161,33.6939215 72.6207824,34.3835395 72.0551149,34.9112426 C71.4889098,35.4394836 70.729668,35.7036041 69.776314,35.7036041 C69.3757225,35.7036041 69.0945019,35.6874664 68.9321145,35.654653 C68.6121791,35.8224852 68.3685979,36.0204411 68.2008334,36.2479828 C68.033069,36.4755245 67.9491867,36.7165143 67.9491867,36.97149 C67.9491867,37.2528241 68.0561903,37.4583109 68.2696599,37.5884884 C68.4836672,37.718128 68.8423175,37.7837547 69.3461487,37.7837547 L70.8893669,37.7837547 C71.8475602,37.7837547 72.5815298,37.9774072 73.0902003,38.3647122 C73.5988708,38.7520172 73.8537438,39.3243679 73.8537438,40.0828402 C73.8537438,41.0145239 73.4762737,41.7337278 72.7202581,42.2404519 C71.9653179,42.746638 70.8893669,43 69.4924049,43 C68.3820406,43 67.5227853,42.7859064 66.9135637,42.3582571 C66.3048797,41.9300699 66,41.3340506 66,40.570737 C66,39.9634212 66.1881973,39.4599247 66.564592,39.0591716 C66.940449,38.6584185 67.4507326,38.3846154 68.0954429,38.2383002 C67.8298158,38.1247983 67.6174217,37.9639591 67.4577228,37.7552448 C67.2980239,37.5470683 67.2184433,37.3071544 67.2184433,37.0360409 C67.2184433,36.4459387 67.5943003,35.9257665 68.3470897,35.4760624 C67.8325044,35.2646584 67.4319129,34.9332975 67.1453152,34.4809037 C66.8576422,34.0290479 66.7146122,33.5099516 66.7146122,32.9246907 C66.7146122,32.041958 66.9947574,31.3335126 67.5550477,30.8004303 C68.1158758,30.2668101 68.8724291,30 69.8252453,30 C70.4043554,30 70.8538782,30.056482 71.1738137,30.1705218 L74,30.1705218 Z" id="Fill-23"></path>
            <path d="M82.1987626,39 L82.1987626,33.5629069 C82.1987626,32.7199506 82.0103635,32.1072629 81.6341067,31.7238225 C81.2583913,31.3408927 80.6747873,31.1494277 79.8843774,31.1494277 C78.8216551,31.1494277 78.0431555,31.402672 77.5499613,31.9091605 C77.0562258,32.4156491 76.8098995,33.2366506 76.8098995,34.3726758 L76.8098995,39 L76,39 L76,27 L76.8098995,27 L76.8098995,30.8175552 L76.7687548,31.8897588 L76.8261408,31.8897588 C77.1590874,31.3858231 77.5786543,31.0207633 78.0853828,30.7945794 C78.5926527,30.5683955 79.2222738,30.4550483 79.9742459,30.4550483 C81.9914153,30.4550483 83,31.4761945 83,33.5169553 L83,39 L82.1987626,39 Z" id="Fill-24"></path>
            <path d="M87.6514591,38.2935292 C88.1664852,38.2935292 88.6161803,38.2504712 89,38.1648867 L89,38.8075678 C88.6052918,38.9356787 88.1501524,39 87.6351263,39 C86.8457099,39 86.2631751,38.7942783 85.8875218,38.3817716 C85.5118685,37.9697965 85.3245862,37.3223312 85.3245862,36.4388441 L85.3245862,30.801962 L84,30.801962 L84,30.3362973 L85.3245862,29.975354 L85.7350828,28 L86.1542901,28 L86.1542901,30.1119702 L88.7778746,30.1119702 L88.7778746,30.801962 L86.1542901,30.801962 L86.1542901,36.3266805 C86.1542901,36.9954091 86.2751524,37.4908423 86.5168772,37.8119171 C86.7575131,38.1329918 87.1358885,38.2935292 87.6514591,38.2935292" id="Fill-25"></path>
        </g>
    </g>
</svg>