<?xml version="1.0" encoding="UTF-8" standalone="no"?>
<svg width="126px" height="126px" viewBox="0 0 126 126" version="1.1" xmlns="http://www.w3.org/2000/svg" xmlns:xlink="http://www.w3.org/1999/xlink">
    <!-- Generator: Sketch 3.8.3 (29802) - http://www.bohemiancoding.com/sketch -->
    <title>redhat-original</title>
    <desc>Created with Sketch.</desc>
    <defs></defs>
    <g id="Page-1" stroke="none" stroke-width="1" fill="none" fill-rule="evenodd">
        <g id="文档-•-首页" transform="translate(-658.000000, -363.000000)">
            <g id="View1" transform="translate(0.000000, -2.000000)">
                <g id="redhat-original" transform="translate(658.000000, 365.000000)">
                    <g id="Group">
                        <path d="M115.4,96.9 C113,96.4 110.4,96 107.9,96 C103.5,96 99.5,96.8 96.5,98 C96.2,98.2 95.9,98.5 95.9,98.9 C95.9,99 95.9,99.2 96,99.3 C96.3,100.3 95.8,101.4 92.9,102 C88.6,102.9 86,107.3 84.4,108.8 C82.6,110.5 77.5,111.6 78.3,110.5 C78.9,109.7 81.2,107.2 82.6,104.5 C83.9,102.1 85,101.4 86.5,99.1 C87,98.4 88.7,96.1 89.2,94.2 C89.8,92.4 89.6,90.1 89.8,89.1 C90.1,87.7 91.4,84.8 91.5,83.1 C91.6,82.2 87.6,84.5 85.7,84.5 C83.8,84.5 82,83.4 80.3,83.3 C78.2,83.2 76.9,84.9 75,84.6 C73.9,84.4 73,83.5 71.1,83.4 C68.4,83.3 65.1,84.9 58.9,84.7 C52.8,84.5 47.2,77 46.4,75.8 C45.5,74.4 44.4,74.4 43.2,75.5 C42,76.6 40.5,75.7 40.1,75 C39.3,73.6 37.2,69.5 33.9,68.7 C29.3,67.5 27,71.2 27.3,74.2 C27.6,77.2 29.5,78 30.4,79.6 C31.3,81.2 31.8,82.2 33.4,82.9 C34.6,83.4 35,84.1 34.7,85.1 C34.4,86 33.1,86.2 32.3,86.2 C30.6,86.3 29.3,85.8 28.5,85.2 C27.5,84.5 26.6,83.6 25.7,82.1 C24.7,80.4 23,79.6 21.1,79.6 C20.2,79.6 19.3,79.8 18.6,80.2 C15.6,81.8 12,82.7 8.2,82.7 L3.9,82.7 C12.2,107.4 35.6,125.1 63.1,125.1 C85,125.4 104.3,114.1 115.4,96.9" id="Shape" fill="#FFFFFF"></path>
                        <path d="M115.4,96.9 C113,96.3 110.4,96 107.9,96 C103.5,96 99.5,96.8 96.5,98 C96.2,98.2 95.9,98.5 95.9,98.9 C95.9,99 95.9,99.2 96,99.3 C96.3,100.3 95.8,101.4 92.9,102.1 C88.6,103 86,107.4 84.4,108.9 C82.6,110.6 77.5,111.7 78.3,110.6 C78.9,109.8 81.2,107.3 82.6,104.6 C83.9,102.2 85,101.5 86.5,99.2 C87,98.5 88.7,96.2 89.2,94.3 C89.8,92.5 89.6,90.2 89.8,89.2 C90.1,87.8 91.4,84.9 91.5,83.2 C91.6,82.3 87.6,84.5 85.7,84.5 C83.8,84.5 82,83.4 80.3,83.3 C78.2,83.2 76.9,84.9 75,84.6 C73.9,84.4 73,83.5 71.1,83.4 C68.4,83.3 65.1,84.9 58.9,84.7 C52.8,84.5 47.2,77 46.4,75.8 C45.5,74.4 44.4,74.4 43.2,75.5 C42,76.6 40.5,75.7 40.1,75 C39.3,73.6 37.2,69.5 33.9,68.7 C29.3,67.5 27,71.2 27.3,74.2 C27.6,77.2 29.5,78 30.4,79.6 C31.3,81.2 31.8,82.2 33.4,82.9 C34.6,83.4 35,84.1 34.7,85.1 C34.4,86 33.1,86.2 32.3,86.2 C30.6,86.3 29.3,85.8 28.5,85.2 C27.5,84.5 26.6,83.6 25.7,82.1 C24.7,80.4 23,79.6 21.1,79.6 C20.2,79.6 19.3,79.8 18.6,80.2 C15.6,81.8 12,82.7 8.2,82.7 L3.8,82.7 C1.7,76.7 0.6,70 0.6,63 C0.6,28.5 28.5,0.6 63,0.6 C97.5,0.6 125.4,28.5 125.4,63 C125.4,75.5 121.7,87.1 115.4,96.9 M76.7,91.2 C77,91.5 77.6,92.6 76.9,93.9 C76.5,94.6 76.1,95.1 75.4,95.7 C74.5,96.4 72.8,97.2 70.5,95.7 C69.2,94.9 69.2,94.6 67.4,94.9 C66.2,95.1 65.7,93.8 66.1,92.8 C66.6,91.8 68.4,90.9 70.7,92.3 C71.7,92.9 73.3,94.2 74.7,93 C75.3,92.5 75.6,92.2 76.4,91.3 L76.5,91.2 C76.7,91.1 76.7,91.2 76.7,91.2" id="Shape" fill="#000000"></path>
                        <path d="M58.1,30.3 C50.9,30.8 50.1,31.6 48.8,33 C46.9,35 44.4,30.4 44.4,30.4 C42.9,30.1 41.1,27.7 42.1,25.4 C43.1,23.2 44.9,23.8 45.4,24.5 C46.1,25.3 47.5,26.7 49.4,26.7 C51.3,26.6 53.5,26.3 56.5,26.3 C59.6,26.3 61.7,27.4 61.8,28.4 C61.9,29.3 61.6,30.1 58.1,30.3 M65.7,18.4 C65.6,18.4 65.5,18.3 65.5,18.2 C65.5,18.1 65.5,18.1 65.6,18 C67,17.3 69.1,16.7 71.5,16.4 C72.2,16.3 72.9,16.3 73.6,16.3 L74,16.3 C78,16.4 81.2,18 81.2,19.9 C81.1,21.8 77.9,23.2 73.9,23.1 C72.6,23.1 71.4,22.9 70.3,22.6 C70.2,22.6 70.1,22.5 70.1,22.3 C70.1,22.2 70.2,22.1 70.3,22 C72.8,21.4 74.5,20.5 74.4,19.6 C74.2,18.4 71,17.8 67.1,18.2 C66.5,18.3 66.1,18.4 65.7,18.4 M98.2,46.4 C97.6,48.5 96.7,51.1 92.8,53.1 C92.2,53.4 92,52.9 92.3,52.5 C93.8,50 94,49.4 94.5,48.4 C95.1,47 95.4,44.9 94.2,40.6 C91.9,32.2 87,20.9 83.4,17.2 C80,13.7 73.7,12.7 68.1,14.1 C66,14.6 62,16.7 54.5,15 C41.5,12.1 39.6,18.6 38.8,21.4 C38,24.2 36.3,32.3 36.3,32.3 C35.7,35.6 34.9,41.3 55.1,45.1 C64.5,46.9 65,49.3 65.4,51.1 C66.1,54.2 67.3,56 68.7,56.9 C70,57.8 68.7,58.5 67.2,58.7 C63.2,59.1 48.4,54.9 39.6,49.9 C32.4,45.5 32.3,41.6 34,38.2 C23.2,37 15,39.2 13.6,44.3 C11,53.3 32.8,68.3 57.7,75.8 C83.8,83.7 110.7,78.2 113.7,61.8 C115.1,54.3 108.8,48.8 98.2,46.4" id="Shape" fill="#E93442"></path>
                    </g>
                </g>
            </g>
        </g>
    </g>
</svg>