<?xml version="1.0" encoding="UTF-8" standalone="no"?>
<svg width="42px" height="41px" viewBox="0 0 42 41" version="1.1" xmlns="http://www.w3.org/2000/svg" xmlns:xlink="http://www.w3.org/1999/xlink">
    <!-- Generator: Sketch 3.8.3 (29802) - http://www.bohemiancoding.com/sketch -->
    <title>Slice 1</title>
    <desc>Created with Sketch.</desc>
    <defs></defs>
    <g id="Page-1" stroke="none" stroke-width="1" fill="none" fill-rule="evenodd">
        <g id="tools" transform="translate(1.000000, 1.000000)" stroke="#FFF000">
            <g id="wrench" transform="translate(0.000000, 0.000000)">
                <g id="Final">
                    <g id="wrench">
                        <g id="tools">
                            <circle id="Oval" stroke-width="2" cx="7.5" cy="30.8" r="7.5"></circle>
                            <circle id="Oval" cx="7.5" cy="30.8" r="3"></circle>
                            <path d="M34,12.4 C32.1,12.4 30.5,10.8 30.5,8.9 C30.5,7 32,5.4 34,5.4 L38,5.4 C36.7,2.4 34.2,0.9 31.4,0.9 C27.3,0.9 23.9,4 23.9,8.2 C23.9,12.4 27.3,16.1 31.4,16.1 C34.3,16.1 36.8,14.5 38,12.5 C35.8,12.4 34,12.4 34,12.4 L34,12.4 L34,12.4 Z" id="Shape" stroke-width="2"></path>
                            <path d="M10,23.6 L24,9.6" id="Shape" stroke-width="2"></path>
                            <path d="M15,29.5 L28.9,15.6" id="Shape" stroke-width="2"></path>
                            <path d="M15.9,23.4 L23.3,16" id="Shape"></path>
                        </g>
                    </g>
                </g>
            </g>
        </g>
    </g>
</svg>