<svg id="图层_1" data-name="图层 1" xmlns="http://www.w3.org/2000/svg" viewBox="0 0 60 60"><defs><style>.cls-1{fill:#f5c538;}</style></defs><title>1</title><path class="cls-1" d="M30,5.16A24.84,24.84,0,1,0,54.84,30,24.86,24.86,0,0,0,30,5.16ZM50.53,22.56H42.86a15,15,0,0,0-5.41-5.42V9.47A22,22,0,0,1,50.53,22.56ZM51.84,30a21.85,21.85,0,0,1-.46,4.44H44.2a14.88,14.88,0,0,0,0-8.89h7.18A21.85,21.85,0,0,1,51.84,30ZM30,41.88A11.88,11.88,0,1,1,41.88,30,11.89,11.89,0,0,1,30,41.88ZM34.45,8.62V15.8a14.88,14.88,0,0,0-8.89,0V8.62A21.9,21.9,0,0,1,34.45,8.62Zm-11.89.85v7.67a15,15,0,0,0-5.42,5.42H9.47A22,22,0,0,1,22.56,9.47Zm-6.76,25H8.62a21.9,21.9,0,0,1,0-8.89H15.8A14.88,14.88,0,0,0,15.8,34.44Zm-6.33,3h7.67a15,15,0,0,0,5.42,5.42v7.67A22,22,0,0,1,9.47,37.44ZM25.56,51.38V44.2a14.88,14.88,0,0,0,8.89,0v7.18A21.9,21.9,0,0,1,25.56,51.38Zm11.89-.85V42.86a15,15,0,0,0,5.41-5.42h7.67A22,22,0,0,1,37.45,50.53Z"/></svg>
