<?xml version="1.0" encoding="UTF-8" standalone="no"?>
<svg width="122px" height="122px" viewBox="0 0 122 122" version="1.1" xmlns="http://www.w3.org/2000/svg" xmlns:xlink="http://www.w3.org/1999/xlink">
    <!-- Generator: Sketch 3.8.3 (29802) - http://www.bohemiancoding.com/sketch -->
    <title>ubuntu-plain</title>
    <desc>Created with Sketch.</desc>
    <defs></defs>
    <g id="Page-1" stroke="none" stroke-width="1" fill="none" fill-rule="evenodd">
        <g id="文档-•-首页" transform="translate(-1153.000000, -367.000000)" fill="#DD4814">
            <g id="View1" transform="translate(0.000000, -2.000000)">
                <g id="ubuntu-plain" transform="translate(1153.000000, 369.000000)">
                    <path d="M61,0.246 C27.445,0.246 0.245,27.446 0.245,61 C0.245,94.552 27.445,121.754 61,121.754 C94.554,121.754 121.755,94.552 121.755,61 C121.755,27.446 94.555,0.246 61,0.246 L61,0.246 Z M74.631,21.168 C76.873,17.287 81.831,15.958 85.711,18.196 C89.591,20.438 90.919,25.396 88.677,29.276 C86.439,33.156 81.48,34.484 77.6,32.243 C73.723,30.004 72.394,25.045 74.631,21.168 L74.631,21.168 Z M61,25.763 C64.262,25.763 67.417,26.216 70.414,27.044 C70.943,30.303 72.877,33.306 75.962,35.086 C79.041,36.861 82.604,37.039 85.687,35.875 C91.685,41.773 95.588,49.794 96.157,58.729 L84.599,58.899 C83.532,46.796 73.377,37.306 61,37.306 C57.435,37.306 54.052,38.098 51.02,39.509 L45.383,29.41 C50.091,27.08 55.393,25.763 61,25.763 L61,25.763 Z M19.689,69.112 C15.207,69.112 11.576,65.48 11.576,61 C11.576,56.519 15.206,52.887 19.689,52.887 C24.168,52.887 27.8,56.518 27.8,61 C27.8,65.479 24.168,69.112 19.689,69.112 L19.689,69.112 Z M26.88,69.834 C29.441,67.744 31.08,64.563 31.08,61 C31.08,57.435 29.441,54.253 26.88,52.164 C29.074,43.675 34.355,36.426 41.451,31.681 L47.382,41.615 C41.29,45.902 37.308,52.984 37.308,61 C37.308,69.016 41.289,76.098 47.382,80.383 L41.451,90.32 C34.352,85.576 29.071,78.325 26.88,69.834 L26.88,69.834 Z M85.711,103.798 C81.832,106.039 76.873,104.71 74.634,100.829 C72.393,96.952 73.723,91.994 77.603,89.753 C81.48,87.514 86.441,88.845 88.68,92.722 C90.92,96.602 89.59,101.561 85.711,103.798 L85.711,103.798 Z M85.687,86.125 C82.604,84.959 79.042,85.134 75.962,86.913 C72.878,88.696 70.943,91.695 70.415,94.955 C67.417,95.785 64.262,96.239 61,96.239 C55.393,96.239 50.091,94.921 45.384,92.59 L51.02,82.49 C54.052,83.901 57.435,84.694 61,84.694 C73.378,84.694 83.532,75.206 84.596,63.102 L96.157,63.271 C95.588,72.206 91.685,80.227 85.687,86.125 L85.687,86.125 Z" id="Shape"></path>
                </g>
            </g>
        </g>
    </g>
</svg>