<svg id="图层_1" data-name="图层 1" xmlns="http://www.w3.org/2000/svg" viewBox="0 0 100 100"><defs><style>.cls-1{fill:#5bc03c;}.cls-2{fill:#fff;}</style></defs><title>未标题-2</title><rect class="cls-1" width="100" height="100"/><path class="cls-2" d="M60.16,42.3c-4.84.25-9.06,1.72-12.48,5a14.82,14.82,0,0,0-4.6,12.55c-1.89-.23-3.62-0.49-5.35-0.64a3.33,3.33,0,0,0-1.82.31c-1.68,1-3.3,2-5.21,3.22,0.35-1.59.58-3,1-4.32a1.64,1.64,0,0,0-.75-2.17C25.12,52.18,22.67,46,24.5,39.71c1.7-5.85,5.87-9.4,11.53-11.25,7.73-2.53,16.42.05,21.12,6.19A14.46,14.46,0,0,1,60.16,42.3Zm-22.3-2a2.23,2.23,0,0,0-2.15-2.23,2.17,2.17,0,0,0-2.26,2.1,2.14,2.14,0,0,0,2.12,2.22A2.21,2.21,0,0,0,37.87,40.33ZM49.5,38.09a2.24,2.24,0,0,0-2.18,2.2,2.18,2.18,0,0,0,2.24,2.13A2.17,2.17,0,1,0,49.5,38.09Z"/><path class="cls-2" d="M71,72.5c-1.53-.68-2.94-1.71-4.44-1.86s-3.06.71-4.62,0.86a15.45,15.45,0,0,1-12.53-4.09c-6.68-6.18-5.73-15.66,2-20.72,6.87-4.5,16.95-3,21.79,3.25A12.38,12.38,0,0,1,71.82,67.2c-1.49,1.33-2,2.42-1.07,4.16A5,5,0,0,1,71,72.5ZM53.59,55.59a1.8,1.8,0,1,0,0-3.61A1.8,1.8,0,1,0,53.59,55.59ZM64.84,52a1.81,1.81,0,0,0-1.79,1.73A1.78,1.78,0,1,0,64.84,52Z"/></svg>