<?xml version="1.0" encoding="utf-8"?>
<!-- Generator: Adobe Illustrator 19.2.0, SVG Export Plug-In . SVG Version: 6.00 Build 0)  -->
<svg version="1.1" id="图层_1" xmlns="http://www.w3.org/2000/svg" xmlns:xlink="http://www.w3.org/1999/xlink" x="0px" y="0px"
	 viewBox="0 0 100 106.7" style="enable-background:new 0 0 100 106.7;" xml:space="preserve">
<style type="text/css">
	.st0{fill-rule:evenodd;clip-rule:evenodd;fill:#FFFFFF;}
	.st1{fill:#1A1B1B;}
</style>
<g>
	<g>
		<polygon class="st0" points="0,0 0,100 43.3,100 50,106.7 56.7,100 100,100 100,0 		"/>
	</g>
</g>
<g>
	<polygon class="st1" points="24.7,5.3 27.1,5.3 27.1,7.7 29.5,7.7 29.5,5.3 31.9,5.3 31.9,7.7 34.4,7.7 34.4,5.3 36.8,5.3 
		36.8,10.1 34.4,10.1 34.4,14.9 31.9,14.9 31.9,12.5 24.7,12.5 	"/>
	<polygon class="st1" points="39.2,5.3 44,5.3 44,7.7 41.6,7.7 41.6,10.1 44,10.1 44,12.5 36.8,12.5 36.8,10.1 39.2,10.1 	"/>
	<rect x="65.6" y="5.3" class="st1" width="2.4" height="2.4"/>
	<polygon class="st1" points="72.9,5.3 75.3,5.3 75.3,10.1 70.5,10.1 70.5,7.7 72.9,7.7 	"/>
	<path class="st1" d="M5.5,5.3v16.9h16.9V5.3H5.5z M19.9,19.7h-12v-12h12V19.7z"/>
	<rect x="44" y="7.7" class="st1" width="2.4" height="2.4"/>
	<path class="st1" d="M77.7,5.3v16.9h16.9V5.3H77.7z M92.1,19.7h-12v-12h12V19.7z"/>
	<rect x="10.3" y="10.1" class="st1" width="7.2" height="7.2"/>
	<rect x="82.5" y="10.1" class="st1" width="7.2" height="7.2"/>
	<rect x="29.5" y="14.9" class="st1" width="2.4" height="2.4"/>
	<rect x="34.4" y="14.9" class="st1" width="2.4" height="2.4"/>
	<polygon class="st1" points="24.7,17.3 29.5,17.3 29.5,19.7 27.1,19.7 27.1,24.5 31.9,24.5 31.9,22.1 34.4,22.1 34.4,24.5 
		39.2,24.5 39.2,29.3 41.6,29.3 41.6,31.7 39.2,31.7 39.2,34.1 41.6,34.1 41.6,39 36.8,39 36.8,41.4 34.4,41.4 34.4,43.8 31.9,43.8 
		31.9,39 34.4,39 34.4,29.3 31.9,29.3 31.9,31.7 29.5,31.7 29.5,29.3 27.1,29.3 27.1,26.9 24.7,26.9 	"/>
	<rect x="29.5" y="19.7" class="st1" width="2.4" height="2.4"/>
	<rect x="34.4" y="19.7" class="st1" width="2.4" height="2.4"/>
	<rect x="44" y="19.7" class="st1" width="2.4" height="2.4"/>
	<rect x="48.8" y="19.7" class="st1" width="2.4" height="2.4"/>
	<rect x="68.1" y="19.7" class="st1" width="2.4" height="2.4"/>
	<rect x="41.6" y="22.1" class="st1" width="2.4" height="7.2"/>
	<polygon class="st1" points="51.2,22.1 53.6,22.1 53.6,26.9 51.2,26.9 51.2,29.3 53.6,29.3 53.6,31.7 56,31.7 56,34.1 51.2,34.1 
		51.2,31.7 44,31.7 44,29.3 48.8,29.3 48.8,24.5 51.2,24.5 	"/>
	<polygon class="st1" points="10.3,24.5 17.5,24.5 17.5,26.9 15.1,26.9 15.1,29.3 12.7,29.3 12.7,26.9 10.3,26.9 	"/>
	<rect x="19.9" y="24.5" class="st1" width="2.4" height="2.4"/>
	<rect x="87.3" y="24.5" class="st1" width="7.2" height="2.4"/>
	<polygon class="st1" points="5.5,26.9 10.3,26.9 10.3,29.3 7.9,29.3 7.9,31.7 5.5,31.7 	"/>
	<rect x="17.5" y="26.9" class="st1" width="2.4" height="2.4"/>
	<polygon class="st1" points="22.3,26.9 24.7,26.9 24.7,31.7 19.9,31.7 19.9,29.3 22.3,29.3 	"/>
	<rect x="10.3" y="29.3" class="st1" width="2.4" height="2.4"/>
	<rect x="15.1" y="29.3" class="st1" width="2.4" height="2.4"/>
	<polygon class="st1" points="77.7,29.3 80.1,29.3 80.1,31.7 82.5,31.7 82.5,34.1 80.1,34.1 80.1,36.6 77.7,36.6 	"/>
	<rect x="82.5" y="29.3" class="st1" width="4.8" height="2.4"/>
	<rect x="92.1" y="29.3" class="st1" width="2.4" height="2.4"/>
	<rect x="41.6" y="31.7" class="st1" width="2.4" height="2.4"/>
	<rect x="58.4" y="31.7" class="st1" width="2.4" height="2.4"/>
	<path class="st1" d="M82.5,43.8v-7.2h-2.4V39h-2.4v2.4h-4.8V39h-4.8v-2.4h2.4v-2.4h2.4v-2.4h2.4v-2.4h2.4v-2.4h4.8v-2.4h-7.2v-12
		h-12v-2.4h-2.4V5.3h-7.2v2.4h-4.8v2.4h-2.4v4.8h-7.2v7.2h2.4v-2.4H44v-2.4h2.4v2.4h2.4v-4.8h2.4v-2.4h2.4v2.4h-2.4v2.4h2.4v4.8H56
		v-2.4h2.4v4.8h2.4v-7.2H56v-2.4h4.8v2.4h2.4v4.8h2.4v-4.8h4.8v-2.4h2.4v2.4h-2.4v2.4h2.4v9.6h-2.4v-2.4h-2.4v2.4h-2.4v-2.4h2.4
		v-2.4h-7.2v2.4h-2.4v-2.4H56v2.4h-2.4v2.4H56v2.4h2.4v-2.4h4.8v7.2h2.4v4.8h2.4v2.4h-4.8v2.4h9.6v-2.4h2.4v2.4h-2.4v2.4h4.8v-2.4
		h2.4v2.4h2.4v-2.4h2.4v-2.4H82.5z M58.4,12.5H56v-2.4h2.4V12.5z M65.6,34.1v-2.4h2.4v2.4H65.6z"/>
	<polygon class="st1" points="5.5,34.1 15.1,34.1 15.1,36.6 12.7,36.6 12.7,39 10.3,39 10.3,36.6 5.5,36.6 	"/>
	<rect x="19.9" y="34.1" class="st1" width="4.8" height="2.4"/>
	<polygon class="st1" points="44,34.1 46.4,34.1 46.4,36.6 53.6,36.6 53.6,39 56,39 56,41.4 60.8,41.4 60.8,43.8 56,43.8 56,48.6 
		53.6,48.6 53.6,46.2 51.2,46.2 51.2,48.6 48.8,48.6 48.8,43.8 46.4,43.8 46.4,41.4 51.2,41.4 51.2,43.8 53.6,43.8 53.6,41.4 
		51.2,41.4 51.2,39 46.4,39 46.4,41.4 41.6,41.4 41.6,39 44,39 	"/>
	<rect x="56" y="34.1" class="st1" width="2.4" height="2.4"/>
	<rect x="82.5" y="34.1" class="st1" width="2.4" height="2.4"/>
	<rect x="92.1" y="34.1" class="st1" width="2.4" height="2.4"/>
	<rect x="29.5" y="36.6" class="st1" width="2.4" height="2.4"/>
	<rect x="58.4" y="36.6" class="st1" width="2.4" height="2.4"/>
	<rect x="72.9" y="36.6" class="st1" width="4.8" height="2.4"/>
	<polygon class="st1" points="84.9,36.6 89.7,36.6 89.7,39 87.3,39 87.3,41.4 84.9,41.4 	"/>
	<rect x="5.5" y="39" class="st1" width="2.4" height="2.4"/>
	<polygon class="st1" points="12.7,39 15.1,39 15.1,43.8 12.7,43.8 12.7,48.6 10.3,48.6 10.3,43.8 7.9,43.8 7.9,41.4 12.7,41.4 	"/>
	<polygon class="st1" points="89.7,39 94.5,39 94.5,43.8 92.1,43.8 92.1,41.4 89.7,41.4 	"/>
	<path class="st1" d="M27.1,41.4V39h-7.2v-2.4h-2.4v7.2h-2.4v4.8h4.8v-2.4h2.4v2.4h-2.4V51h4.8v-2.4h2.4v-4.8h-2.4v-2.4H27.1z
		 M22.3,43.8h-2.4v-2.4h2.4V43.8z"/>
	<rect x="27.1" y="41.4" class="st1" width="2.4" height="2.4"/>
	<polygon class="st1" points="36.8,41.4 41.6,41.4 41.6,43.8 39.2,43.8 39.2,48.6 41.6,48.6 41.6,46.2 44,46.2 44,43.8 46.4,43.8 
		46.4,48.6 48.8,48.6 48.8,51 46.4,51 46.4,53.4 44,53.4 44,58.2 39.2,58.2 39.2,63 36.8,63 36.8,58.2 34.4,58.2 34.4,55.8 
		41.6,55.8 41.6,51 34.4,51 34.4,48.6 36.8,48.6 36.8,46.2 34.4,46.2 34.4,43.8 36.8,43.8 	"/>
	<polygon class="st1" points="87.3,43.8 89.7,43.8 89.7,48.6 84.9,48.6 84.9,46.2 87.3,46.2 	"/>
	<polygon class="st1" points="5.5,46.2 7.9,46.2 7.9,48.6 10.3,48.6 10.3,51 12.7,51 12.7,48.6 15.1,48.6 15.1,51 19.9,51 
		19.9,53.4 22.3,53.4 22.3,55.8 17.5,55.8 17.5,53.4 10.3,53.4 10.3,55.8 5.5,55.8 	"/>
	<polygon class="st1" points="56,48.6 58.4,48.6 58.4,51 60.8,51 60.8,53.4 56,53.4 	"/>
	<rect x="65.6" y="48.6" class="st1" width="2.4" height="2.4"/>
	<rect x="70.5" y="48.6" class="st1" width="2.4" height="2.4"/>
	<polygon class="st1" points="89.7,48.6 94.5,48.6 94.5,51 92.1,51 92.1,53.4 89.7,53.4 	"/>
	<polygon class="st1" points="27.1,51 31.9,51 31.9,53.4 34.4,53.4 34.4,55.8 29.5,55.8 29.5,60.6 27.1,60.6 27.1,58.2 24.7,58.2 
		24.7,60.6 27.1,60.6 27.1,63 24.7,63 24.7,67.9 22.3,67.9 22.3,65.4 19.9,65.4 19.9,63 22.3,63 22.3,60.6 19.9,60.6 19.9,63 
		17.5,63 17.5,65.4 19.9,65.4 19.9,67.9 22.3,67.9 22.3,70.3 19.9,70.3 19.9,72.7 24.7,72.7 24.7,67.9 27.1,67.9 27.1,72.7 
		29.5,72.7 29.5,75.1 27.1,75.1 27.1,77.5 24.7,77.5 24.7,75.1 10.3,75.1 10.3,72.7 17.5,72.7 17.5,70.3 15.1,70.3 15.1,65.4 
		10.3,65.4 10.3,60.6 7.9,60.6 7.9,58.2 12.7,58.2 12.7,60.6 17.5,60.6 17.5,58.2 22.3,58.2 22.3,55.8 24.7,55.8 24.7,53.4 
		27.1,53.4 	"/>
	<polygon class="st1" points="48.8,51 53.6,51 53.6,55.8 51.2,55.8 51.2,53.4 48.8,53.4 	"/>
	<rect x="72.9" y="51" class="st1" width="2.4" height="2.4"/>
	<polygon class="st1" points="60.8,53.4 63.2,53.4 63.2,58.2 56,58.2 56,55.8 60.8,55.8 	"/>
	<rect x="68.1" y="53.4" class="st1" width="2.4" height="2.4"/>
	<polygon class="st1" points="31.9,58.2 34.4,58.2 34.4,65.4 31.9,65.4 31.9,67.9 29.5,67.9 29.5,65.4 27.1,65.4 27.1,63 31.9,63 	
		"/>
	<rect x="53.6" y="58.2" class="st1" width="2.4" height="2.4"/>
	<polygon class="st1" points="63.2,58.2 68.1,58.2 68.1,60.6 65.6,60.6 65.6,65.4 60.8,65.4 60.8,63 63.2,63 	"/>
	<polygon class="st1" points="51.2,60.6 53.6,60.6 53.6,63 56,63 56,60.6 58.4,60.6 58.4,65.4 60.8,65.4 60.8,67.9 58.4,67.9 
		58.4,70.3 48.8,70.3 48.8,67.9 56,67.9 56,65.4 51.2,65.4 	"/>
	<rect x="68.1" y="60.6" class="st1" width="2.4" height="4.8"/>
	<path class="st1" d="M94.5,65.4v-7.2h-4.8v-4.8h-4.8v-4.8h-2.4V51h-4.8v2.4h-2.4v4.8h-4.8v2.4h2.4v4.8h2.4v2.4h7.2v-7.2h-2.4v-2.4
		h-2.4v-2.4h2.4v2.4h2.4v-2.4h4.8v4.8h2.4V63h-2.4v2.4h-2.4v2.4h-2.4v2.4h4.8v-2.4h2.4v4.8h-2.4v2.4h2.4v7.2h4.8v-4.8h-2.4v-7.2h2.4
		v-2.4h-2.4v-2.4H94.5z M77.7,63h-2.4v-2.4h2.4V63z"/>
	<rect x="84.9" y="60.6" class="st1" width="2.4" height="2.4"/>
	<rect x="5.5" y="63" class="st1" width="2.4" height="12"/>
	<rect x="39.2" y="63" class="st1" width="2.4" height="2.4"/>
	<path class="st1" d="M51.2,60.6v-2.4h-2.4v-4.8h-2.4v4.8H44v2.4h-2.4V63H44v4.8h-4.8v-2.4h-2.4v2.4h-4.8v7.2h7.2v2.4h-2.4v2.4h4.8
		v-2.4H44v2.4h-2.4v4.8H44v-2.4h2.4v2.4h2.4V70.3h-2.4v2.4H44v2.4h-2.4v-4.8h4.8v-2.4h2.4V63h-2.4v-2.4H51.2z M36.8,72.7h-2.4v-2.4
		h2.4V72.7z"/>
	<polygon class="st1" points="29.5,75.1 31.9,75.1 31.9,79.9 27.1,79.9 27.1,77.5 29.5,77.5 	"/>
	<path class="st1" d="M84.9,77.5v-4.8h-9.6v-2.4h-2.4v2.4h-2.4v-2.4h2.4v-2.4h-4.8v4.8h-4.8v-2.4h2.4v-2.4h-4.8v4.8H56v2.4h-2.4
		v-2.4h-2.4v7.2H56v2.4h-4.8v2.4h-2.4v2.4h2.4v4.8H56v2.4h2.4v-4.8h-4.8v-4.8H56v2.4h2.4v-2.4h4.8v4.8h2.4v-4.8h2.4v-2.4h-2.4v-2.4
		h-4.8v2.4h-2.4v-2.4h2.4v-4.8h4.8v2.4h2.4v-2.4h2.4v2.4h2.4v4.8h-2.4v2.4h7.2v2.4h2.4v2.4h2.4v-4.8h2.4v-4.8h2.4v-2.4H84.9z
		 M82.5,82.3h-7.2v-7.2h7.2V82.3z"/>
	<rect x="68.1" y="77.5" class="st1" width="2.4" height="4.8"/>
	<rect x="77.7" y="77.5" class="st1" width="2.4" height="2.4"/>
	<path class="st1" d="M5.5,77.5v16.9h16.9V77.5H5.5z M19.9,91.9h-12v-12h12V91.9z"/>
	<rect x="10.3" y="82.3" class="st1" width="7.2" height="7.2"/>
	<polygon class="st1" points="24.7,82.3 29.5,82.3 29.5,84.7 27.1,84.7 27.1,87.1 34.4,87.1 34.4,89.5 36.8,89.5 36.8,94.3 
		31.9,94.3 31.9,91.9 27.1,91.9 27.1,89.5 24.7,89.5 	"/>
	<polygon class="st1" points="34.4,82.3 39.2,82.3 39.2,87.1 36.8,87.1 36.8,84.7 34.4,84.7 	"/>
	<polygon class="st1" points="87.3,82.3 89.7,82.3 89.7,89.5 87.3,89.5 87.3,91.9 92.1,91.9 92.1,87.1 94.5,87.1 94.5,94.3 
		84.9,94.3 84.9,91.9 82.5,91.9 82.5,89.5 84.9,89.5 84.9,87.1 87.3,87.1 	"/>
	<polygon class="st1" points="41.6,87.1 46.4,87.1 46.4,89.5 48.8,89.5 48.8,94.3 44,94.3 44,89.5 41.6,89.5 	"/>
	<rect x="58.4" y="87.1" class="st1" width="2.4" height="2.4"/>
	<polygon class="st1" points="68.1,87.1 70.5,87.1 70.5,89.5 75.3,89.5 75.3,91.9 72.9,91.9 72.9,94.3 68.1,94.3 	"/>
	<polygon class="st1" points="77.7,89.5 80.1,89.5 80.1,94.3 75.3,94.3 75.3,91.9 77.7,91.9 	"/>
	<rect x="39.2" y="91.9" class="st1" width="2.4" height="2.4"/>
	<rect x="60.8" y="91.9" class="st1" width="4.8" height="2.4"/>
</g>
</svg>
