<svg id="图层_1" data-name="图层 1" xmlns="http://www.w3.org/2000/svg" viewBox="0 0 100 100"><defs><style>.cls-1{fill:#e33f46;}.cls-2{fill:#fff;}</style></defs><title>未标题-2</title><rect class="cls-1" x="0.07" width="100" height="100"/><path class="cls-2" d="M46.88,51.76h0a8.9,8.9,0,0,0-10,4.35,6.06,6.06,0,0,0,3.87,8.64,8.81,8.81,0,0,0,10.53-4.47C53,56.6,50.91,52.81,46.88,51.76Zm-3,8.92h0a3.1,3.1,0,0,1-3.76,1.23,2.16,2.16,0,0,1-.83-3.26A3.1,3.1,0,0,1,43,57.41,2.18,2.18,0,0,1,43.92,60.69Zm2.6-3.34h0a1.18,1.18,0,0,1-1.41.52,0.83,0.83,0,0,1-.36-1.23,1.17,1.17,0,0,1,1.38-.51A0.82,0.82,0,0,1,46.52,57.34Z"/><path class="cls-2" d="M66.35,38.81a6.37,6.37,0,0,0-6.06-2A1.62,1.62,0,1,0,61,40a3.12,3.12,0,0,1,3.61,4,1.63,1.63,0,0,0,3.1,1,6.35,6.35,0,0,0-1.32-6.23"/><path class="cls-2" d="M71.32,34.32a13.07,13.07,0,0,0-12.43-4,1.89,1.89,0,0,0,.79,3.7,9.28,9.28,0,0,1,10.78,12,1.89,1.89,0,0,0,3.59,1.17h0a13,13,0,0,0-2.73-12.78"/><path class="cls-2" d="M62.38,49.26h0c-0.69-.21-1.17-0.35-0.8-1.26,0.79-2,.87-3.7,0-4.91-1.61-2.29-6-2.17-11-.06,0,0-1.58.69-1.18-.56,0.77-2.49.65-4.57-.55-5.77-2.73-2.73-10,.1-16.19,6.32-4.66,4.66-7.36,9.59-7.36,13.86C25.31,65,35.78,70,46,70c13.42,0,22.35-7.8,22.35-14C68.36,52.27,65.22,50.14,62.38,49.26ZM46,67.06v0c-8.17.8-15.23-2.89-15.76-8.25s5.66-10.38,13.83-11.19,15.23,2.88,15.77,8.25S54.21,66.25,46,67.06Z"/></svg>